<svg width="39" height="40" viewBox="0 0 39 40" fill="none" xmlns="http://www.w3.org/2000/svg">
<path d="M39 26.668L31.6849 26.668C30.2116 29.2104 27.9375 31.1974 25.2151 32.3208C22.4928 33.4443 19.4745 33.6414 16.6283 32.8816C13.7821 32.1217 11.2671 30.4475 9.47328 28.1184C7.6795 25.7894 6.70721 22.9357 6.70721 20C6.70721 17.0643 7.6795 14.2106 9.47328 11.8816C11.2671 9.55252 13.7821 7.87825 16.6283 7.11844C19.4745 6.35862 22.4928 6.55572 25.2151 7.67917C27.9375 8.80261 30.2116 10.7896 31.6849 13.332L39 13.332C37.4212 8.88416 34.3151 5.13552 30.2306 2.74862C26.146 0.361723 21.3461 -0.509762 16.679 0.288188C12.0119 1.08614 7.77817 3.50215 4.72607 7.10923C1.67397 10.7163 -6.68007e-07 15.2822 -8.74228e-07 20C-1.08045e-06 24.7178 1.67397 29.2837 4.72607 32.8908C7.77816 36.4978 12.0119 38.9139 16.679 39.7118C21.3461 40.5098 26.146 39.6383 30.2306 37.2514C34.3151 34.8645 37.4212 31.1158 39 26.668Z" fill="#76B82A"/>
</svg>
