<svg width="60" height="62" viewBox="0 0 60 62" fill="none" xmlns="http://www.w3.org/2000/svg">
<path d="M60 41.3354L48.7461 41.3354C46.4794 45.2761 42.9807 48.356 38.7925 50.0973C34.6044 51.8386 29.9608 52.1441 25.582 50.9664C21.2032 49.7887 17.3339 47.1936 14.5743 43.5836C11.8146 39.9735 10.3188 35.5503 10.3188 31C10.3188 26.4497 11.8146 22.0265 14.5743 18.4164C17.334 14.8064 21.2032 12.2113 25.582 11.0336C29.9608 9.85587 34.6044 10.1614 38.7925 11.9027C42.9807 13.6441 46.4794 16.7239 48.7461 20.6646L60 20.6646C57.5711 13.7704 52.7925 7.96006 46.5086 4.26036C40.2247 0.56067 32.8401 -0.790132 25.66 0.446692C18.4798 1.68352 11.9664 5.42833 7.27088 11.0193C2.57534 16.6103 5.34537e-06 23.6874 5.02573e-06 31C4.70608e-06 38.3126 2.57534 45.3897 7.27088 50.9807C11.9664 56.5717 18.4798 60.3165 25.66 61.5533C32.8401 62.7901 40.2247 61.4393 46.5086 57.7396C52.7925 54.0399 57.5711 48.2296 60 41.3354V41.3354Z" fill="#F3F3F3"/>
</svg>
