<svg width="20" height="13" viewBox="0 0 20 13" fill="none" xmlns="http://www.w3.org/2000/svg">
<path d="M19.7222 0.824707L10.3513 8.15442C10.2472 8.23349 10.1236 8.27272 10 8.27272C9.87641 8.27272 9.75281 8.23349 9.64867 8.15442L0.277813 0.824707C0.104062 1.09952 0 1.42337 0 1.77279V11.2272C0 12.2047 0.788516 12.9999 1.75781 12.9999H18.2422C19.2115 12.9999 20 12.2047 20 11.2272V1.77279C20 1.42337 19.8959 1.09952 19.7222 0.824707Z" fill="#76B82A"/>
<path d="M18.2425 0H1.75816C1.57777 0 1.40711 0.0354935 1.24316 0.0866262L10.0004 6.94311L18.7575 0.0866262C18.5936 0.0354935 18.4229 0 18.2425 0Z" fill="#76B82A"/>
</svg>
