<svg width="40" height="41" viewBox="0 0 40 41" fill="none" xmlns="http://www.w3.org/2000/svg">
<path d="M26.2021 19.4479L29.0186 16.5237C31.0534 17.3625 33.3498 17.3103 35.3522 16.3674C35.8438 16.1358 35.9614 15.4656 35.5797 15.0693L30.5641 9.86183C29.9547 9.22915 29.9547 8.20331 30.5641 7.57063L35.5745 2.36848C35.9587 1.96954 35.8405 1.29446 35.3455 1.06189C32.3658 -0.337884 28.7369 0.233542 26.2876 2.77647C23.9871 5.16496 23.3677 8.6588 24.4285 11.643L21.5566 14.6248L26.2021 19.4479Z" fill="#76B82A"/>
<path d="M20.8209 15.3895L16.9286 11.3484L12.2832 16.1716L16.1754 20.2127L20.8208 25.0358L35.0511 39.8104C35.2543 40.0214 35.5207 40.1269 35.787 40.1269C36.0533 40.1269 36.3197 40.0214 36.5229 39.8104L39.6965 36.5155C40.1029 36.0934 40.1029 35.4093 39.6965 34.9873L25.4663 20.2127L20.8209 15.3895Z" fill="#76B82A"/>
<path d="M37.6802 5.08877L33.519 9.40914C33.1864 9.75453 33.1864 10.3146 33.519 10.66L36.7262 13.9898C37.0843 14.3615 37.6773 14.3319 37.9916 13.9198C39.874 11.4523 40.2303 8.1411 39.0608 5.35405C38.8221 4.78535 38.1026 4.65011 37.6802 5.08877Z" fill="#76B82A"/>
<path d="M5.81625 25.5635L10.8319 30.771C11.4412 31.4037 11.4412 32.4295 10.8319 33.0622L5.82142 38.2643C5.43721 38.6632 5.55538 39.3384 6.05046 39.5709C9.03011 40.9706 12.659 40.3993 15.1083 37.8563C17.4006 35.4764 18.0237 31.9991 16.9787 29.022L20.0818 25.8001L15.4365 20.9771L12.4076 24.1218C10.3653 23.2701 8.05616 23.3178 6.04387 24.2655C5.55213 24.497 5.43454 25.1672 5.81625 25.5635Z" fill="#76B82A"/>
<path d="M3.40355 26.7994C1.52118 29.2668 1.16489 32.5781 2.33443 35.3651C2.57305 35.9338 3.29251 36.069 3.71496 35.6304L7.87615 31.31C8.20882 30.9646 8.20882 30.4046 7.87615 30.0592L4.669 26.7294C4.31096 26.3576 3.71792 26.3873 3.40355 26.7994Z" fill="#76B82A"/>
<path d="M5.78535 19.5105C6.28351 20.0277 7.09113 20.0277 7.5893 19.5105L7.8298 19.2608C8.32796 18.7436 8.32796 17.905 7.8298 17.3879L7.34876 16.8884L8.29588 15.9051L3.84619 11.2852L2.89911 12.2685L2.41807 11.769C1.91991 11.2518 1.11229 11.2518 0.614122 11.769L0.373623 12.0188C-0.124541 12.536 -0.124541 13.3745 0.373623 13.8917L5.78535 19.5105Z" fill="#76B82A"/>
<path d="M12.668 2.40664L17.062 6.96875C22.1279 3.46427 24.9597 6.40381 21.0652 2.3604C18.3719 -0.436039 14.9708 0.887122 12.668 2.40664Z" fill="#76B82A"/>
<path d="M11.3159 2.53318C11.0669 2.27457 10.7404 2.14526 10.414 2.14526C10.0875 2.14526 9.76108 2.27457 9.51204 2.53318L4.10019 8.15201C3.60202 8.66919 3.60202 9.50775 4.10019 10.025L4.58123 10.5244L9.03091 15.1443L9.51195 15.6438C9.76103 15.9024 10.0874 16.0317 10.4139 16.0317C10.4928 16.0317 10.5717 16.0239 10.6495 16.0088C10.8318 15.9735 11.008 15.8967 11.1642 15.7785C11.2172 15.7383 11.268 15.6935 11.3159 15.6438L11.5434 15.4075L16.1888 10.5844L16.5571 10.2021L16.7277 10.025C16.7956 9.95445 16.854 9.87771 16.9034 9.79681C17.2162 9.28478 17.1578 8.59867 16.7277 8.15205L16.2039 7.60823L11.7919 3.02739L11.3159 2.53318Z" fill="#76B82A"/>
</svg>
