<svg xmlns="http://www.w3.org/2000/svg" fill="none" viewBox="14.77 6.52 41.97 31.06">
<path d="M16.9048 6.88193C17.022 6.99782 17.1153 7.13567 17.1792 7.28757C17.2431 7.43948 17.2764 7.60245 17.2772 7.76716L17.2893 35.0668L55.589 35.0789C55.9032 35.1035 56.1969 35.2457 56.4112 35.4772C56.6255 35.7087 56.7447 36.0124 56.7449 36.3276C56.7452 36.6428 56.6265 36.9463 56.4126 37.1774C56.1987 37.4086 55.9053 37.5503 55.591 37.5744L16.0436 37.5524C15.713 37.5511 15.3961 37.4191 15.1622 37.1851C14.9282 36.9511 14.7961 36.6342 14.7949 36.3036L14.7729 7.75623C14.7751 7.51024 14.8498 7.27048 14.9877 7.06693C15.1255 6.86339 15.3203 6.70507 15.5478 6.61178C15.7753 6.5185 16.0253 6.49437 16.2667 6.54241C16.508 6.59046 16.73 6.70856 16.9048 6.88193Z" fill="#76B82A"/>
<rect x="22" y="30" width="8" height="4" rx="1" fill="#76B82A"/>
<rect x="33" y="26" width="8" height="8" rx="1" fill="#76B82A"/>
<rect x="44" y="20" width="8" height="14" rx="1" fill="#76B82A"/>
<path d="M41.6033 9.06885C42.3207 8.65463 43.2381 8.90045 43.6523 9.61789V9.61789C44.0666 10.3353 43.8207 11.2527 43.1033 11.6669L23.7994 22.812C23.082 23.2263 22.1646 22.9804 21.7504 22.263V22.263C21.3361 21.5456 21.582 20.6282 22.2994 20.214L41.6033 9.06885Z" fill="#76B82A"/>
<path d="M46.9477 6.66512C47.8007 6.58359 48.3545 7.5427 47.8573 8.24072L43.3775 14.5305C42.9552 15.1235 42.061 15.0809 41.697 14.4504L38.4897 8.89529C38.1257 8.26481 38.5359 7.46909 39.2606 7.39982L46.9477 6.66512Z" fill="#76B82A"/>
</svg>