<svg width="40" height="40" viewBox="0 0 40 40" fill="none" xmlns="http://www.w3.org/2000/svg">
<path d="M38.7527 21.2456C38.5878 21.2465 38.4244 21.215 38.2718 21.1528C38.1192 21.0906 37.9804 20.9989 37.8634 20.883L19.9653 3.00199L2.06718 20.883C1.82758 21.0878 1.51937 21.1949 1.20415 21.1827C0.888929 21.1706 0.589909 21.0401 0.366847 20.8174C0.143785 20.5947 0.0131098 20.2962 0.000934086 19.9815C-0.0112416 19.6668 0.0959794 19.3591 0.301171 19.1199L19.0886 0.363612C19.3232 0.130721 19.6407 0 19.9716 0C20.3025 0 20.6199 0.130721 20.8546 0.363612L39.642 19.1199C39.8143 19.2954 39.931 19.5178 39.9775 19.7592C40.024 20.0006 39.9981 20.2503 39.9032 20.4771C39.8084 20.7039 39.6486 20.8978 39.444 21.0345C39.2393 21.1711 38.9989 21.2446 38.7527 21.2456Z" fill="#76B82A"/>
<path d="M19.9674 7.22632L4.9375 22.2814V37.4989C4.9375 38.1622 5.20142 38.7983 5.67119 39.2673C6.14097 39.7363 6.77812 39.9998 7.44248 39.9998H16.2099V27.4956H23.7249V39.9998H32.4923C33.1567 39.9998 33.7938 39.7363 34.2636 39.2673C34.7334 38.7983 34.9973 38.1622 34.9973 37.4989V22.1938L19.9674 7.22632Z" fill="#76B82A"/>
</svg>
