<svg width="20" height="20" viewBox="0 0 20 20" fill="none" xmlns="http://www.w3.org/2000/svg">
<path d="M6.8755 10C6.8755 8.27417 8.27417 6.87475 10 6.87475C11.7258 6.87475 13.1252 8.27417 13.1252 10C13.1252 11.7258 11.7258 13.1252 10 13.1252C8.27417 13.1252 6.8755 11.7258 6.8755 10ZM5.18605 10C5.18605 12.6587 7.34125 14.8139 10 14.8139C12.6587 14.8139 14.8139 12.6587 14.8139 10C14.8139 7.34125 12.6587 5.18605 10 5.18605C7.34125 5.18605 5.18605 7.34125 5.18605 10ZM13.8795 4.99517C13.8794 5.21768 13.9453 5.43521 14.0689 5.62027C14.1924 5.80532 14.3681 5.94959 14.5736 6.03482C14.7791 6.12005 15.0053 6.14242 15.2236 6.0991C15.4418 6.05577 15.6423 5.94871 15.7997 5.79144C15.9571 5.63417 16.0643 5.43375 16.1078 5.21554C16.1513 4.99733 16.1291 4.77112 16.0441 4.56552C15.959 4.35992 15.8149 4.18416 15.6299 4.06047C15.445 3.93678 15.2275 3.87071 15.005 3.87063H15.0045C14.7063 3.87076 14.4203 3.98927 14.2093 4.20012C13.9984 4.41098 13.8798 4.69693 13.8795 4.99517ZM6.2125 17.631C5.29847 17.5894 4.80167 17.4371 4.47152 17.3085C4.03382 17.1381 3.72152 16.9352 3.39317 16.6073C3.06482 16.2794 2.86157 15.9674 2.69192 15.5297C2.56322 15.1997 2.41097 14.7027 2.36942 13.7887C2.32397 12.8005 2.3149 12.5036 2.3149 10.0001C2.3149 7.4965 2.32472 7.20047 2.36942 6.21145C2.41105 5.29742 2.56442 4.80145 2.69192 4.47047C2.86232 4.03277 3.06527 3.72047 3.39317 3.39213C3.72107 3.06378 4.03307 2.86053 4.47152 2.69088C4.80152 2.56218 5.29847 2.40992 6.2125 2.36837C7.2007 2.32292 7.49755 2.31385 10 2.31385C12.5024 2.31385 12.7996 2.32367 13.7886 2.36837C14.7027 2.41 15.1986 2.56337 15.5296 2.69088C15.9673 2.86053 16.2796 3.06422 16.608 3.39213C16.9363 3.72003 17.1388 4.03277 17.3092 4.47047C17.4379 4.80047 17.5902 5.29742 17.6317 6.21145C17.6772 7.20047 17.6862 7.4965 17.6862 10.0001C17.6862 12.5036 17.6772 12.7997 17.6317 13.7887C17.5901 14.7027 17.4371 15.1995 17.3092 15.5297C17.1388 15.9674 16.9359 16.2797 16.608 16.6073C16.2801 16.9349 15.9673 17.1381 15.5296 17.3085C15.1996 17.4372 14.7027 17.5895 13.7886 17.631C12.8004 17.6765 12.5036 17.6855 10 17.6855C7.49642 17.6855 7.2004 17.6765 6.2125 17.631ZM6.13488 0.681775C5.13685 0.727225 4.45487 0.885475 3.8593 1.11722C3.2425 1.35655 2.72035 1.67762 2.19857 2.19857C1.6768 2.71952 1.35655 3.2425 1.11722 3.8593C0.885475 4.45525 0.727225 5.13685 0.681775 6.13488C0.635575 7.13448 0.625 7.45405 0.625 10C0.625 12.5459 0.635575 12.8655 0.681775 13.8651C0.727225 14.8632 0.885475 15.5448 1.11722 16.1407C1.35655 16.7571 1.67687 17.2807 2.19857 17.8014C2.72027 18.3221 3.2425 18.6428 3.8593 18.8828C4.456 19.1145 5.13685 19.2728 6.13488 19.3182C7.135 19.3637 7.45405 19.375 10 19.375C12.5459 19.375 12.8655 19.3644 13.8651 19.3182C14.8632 19.2728 15.5448 19.1145 16.1407 18.8828C16.7571 18.6428 17.2796 18.3224 17.8014 17.8014C18.3232 17.2805 18.6428 16.7571 18.8828 16.1407C19.1145 15.5448 19.2735 14.8631 19.3182 13.8651C19.3637 12.8648 19.3742 12.5459 19.3742 10C19.3742 7.45405 19.3637 7.13448 19.3182 6.13488C19.2728 5.13678 19.1145 4.45487 18.8828 3.8593C18.6428 3.24287 18.3224 2.72035 17.8014 2.19857C17.2805 1.6768 16.7571 1.35655 16.1415 1.11722C15.5448 0.885475 14.8631 0.726475 13.8659 0.681775C12.8663 0.636325 12.5467 0.625 10.0007 0.625C7.4548 0.625 7.135 0.635575 6.13488 0.681775Z" fill="white"/>
</svg>
