<svg width="17" height="17" viewBox="0 0 17 17" fill="none" xmlns="http://www.w3.org/2000/svg">
<path d="M16.3281 16.0799C15.3438 16.0565 14.3828 16.0565 13.3984 16.0799C13.1875 16.0799 13.1406 16.0331 13.1406 15.8221C13.1406 14.0878 13.1406 12.3299 13.1406 10.5956C13.1406 10.1971 13.1172 9.79869 13 9.42369C12.6484 8.20494 11.2422 7.75963 10.2344 8.57994C9.69531 9.00182 9.48437 9.58776 9.48437 10.2909C9.48437 11.9315 9.48437 13.5721 9.48437 15.2128C9.48437 15.4237 9.46094 15.6346 9.48437 15.869C9.50781 16.0565 9.41406 16.1034 9.25 16.0799C8.24219 16.0799 7.25781 16.0799 6.25 16.0799C6.0625 16.0799 6.01562 16.0331 6.01562 15.8456C6.03906 14.369 6.03906 12.8924 6.03906 11.3924C6.03906 9.56432 6.03906 7.73619 6.01562 5.93151C6.01562 5.72057 6.0625 5.67369 6.25 5.67369C7.25781 5.67369 8.24219 5.67369 9.25 5.67369C9.4375 5.67369 9.48437 5.72057 9.48437 5.90807C9.48437 6.28307 9.48437 6.65807 9.48437 7.10338C9.55469 7.03307 9.57812 7.00963 9.60156 6.98619C10.5156 5.65026 11.8047 5.27526 13.3281 5.50963C15.0859 5.79088 16.2109 7.00963 16.4922 8.88463C16.5625 9.32994 16.5859 9.77526 16.5859 10.2206C16.5859 12.0956 16.5859 13.9471 16.5859 15.8221C16.5859 16.0096 16.5391 16.0799 16.3281 16.0799Z" fill="white"/>
<path d="M4.14062 10.875C4.14062 12.5156 4.14062 14.1562 4.14062 15.7969C4.14062 16.0078 4.09375 16.0781 3.88281 16.0781C2.89844 16.0547 1.91406 16.0781 0.929687 16.0781C0.742187 16.0781 0.695312 16.0312 0.695312 15.8438C0.695312 12.5391 0.695312 9.21094 0.695312 5.90625C0.695312 5.74219 0.742187 5.67188 0.929687 5.67188C1.9375 5.67188 2.94531 5.67188 3.95312 5.67188C4.16406 5.67188 4.1875 5.74219 4.1875 5.92969C4.14062 7.57031 4.14062 9.21094 4.14062 10.875Z" fill="white"/>
<path d="M4.30514 2.95308C4.07077 3.89058 3.10983 4.42964 2.00827 4.24214C0.836392 4.05464 0.180142 2.9062 0.602017 1.7812C0.883267 1.07808 1.56295 0.656202 2.43014 0.679639C3.74264 0.656202 4.60983 1.71089 4.30514 2.95308Z" fill="white"/>
</svg>
