<svg width="100" height="135" viewBox="0 0 100 135" fill="none" xmlns="http://www.w3.org/2000/svg">
<g clip-path="url(#clip0_2_1023)">
<path d="M66.6799 12.9844V31.2098C73.0435 34.8805 78.017 40.5466 80.829 47.3292C83.641 54.1118 84.1343 61.6319 82.2325 68.7232C80.3307 75.8145 76.14 82.0807 70.3103 86.5499C64.4807 91.0191 57.338 93.4415 49.9899 93.4415C42.6418 93.4415 35.499 91.0191 29.6694 86.5499C23.8397 82.0807 19.649 75.8145 17.7472 68.7232C15.8454 61.6319 16.3387 54.1118 19.1507 47.3292C21.9627 40.5466 26.9362 34.8805 33.2998 31.2098V12.9844C22.1668 16.9178 12.7839 24.6567 6.80951 34.8333C0.835084 45.0099 -1.34625 56.969 0.651027 68.597C2.64831 80.225 8.6956 90.7732 17.7242 98.3775C26.7527 105.982 38.1812 110.152 49.9899 110.152C61.7985 110.152 73.227 105.982 82.2556 98.3775C91.2841 90.7732 97.3314 80.225 99.3287 68.597C101.326 56.969 99.1446 45.0099 93.1702 34.8333C87.1958 24.6567 77.8129 16.9178 66.6799 12.9844Z" fill="#76B82A"/>
<path d="M58.1891 -0.00503798L41.5693 0.0703125L41.8023 51.365L58.4221 51.2896L58.1891 -0.00503798Z" fill="white"/>
<path fill-rule="evenodd" clip-rule="evenodd" d="M51.1415 3.71875H52.4431V9.36042C52.4526 9.8533 52.3919 10.345 52.2628 10.8209C52.1639 11.1865 52.0013 11.5319 51.7823 11.8412C51.5688 12.0956 51.3023 12.3005 51.0013 12.4413C50.6742 12.5635 50.3292 12.6311 49.9801 12.6414C48.218 12.6414 47.3169 11.6411 47.2969 9.6205V3.75876H48.6785V9.2804C48.6863 9.57616 48.7198 9.87069 48.7787 10.1607C48.8054 10.366 48.8886 10.5599 49.0189 10.7208C49.1126 10.8695 49.2537 10.9823 49.4194 11.0409C49.6048 11.0743 49.7947 11.0743 49.9801 11.0409C50.1563 11.0576 50.3337 11.0253 50.4927 10.9476C50.6516 10.8699 50.7861 10.7499 50.8812 10.6008C51.0976 10.16 51.1943 9.67021 51.1615 9.18037L51.1415 3.71875Z" fill="#76B82A"/>
<path fill-rule="evenodd" clip-rule="evenodd" d="M49.1596 19.3819L48.5989 18.0015H48.5589L48.7391 19.3819L48.7791 23.9432L47.4776 23.9632L47.3975 15.1406H48.3987L51.0819 19.782L51.6426 21.1024H51.6826L51.5024 19.762L51.4623 15.1606H52.7639L52.844 23.9632L51.8428 23.9832L49.1596 19.3819Z" fill="#76B82A"/>
<path fill-rule="evenodd" clip-rule="evenodd" d="M49.0996 26.7656H50.4612L50.5413 35.5082L49.1797 35.5282L49.0996 26.7656Z" fill="#76B82A"/>
<path fill-rule="evenodd" clip-rule="evenodd" d="M52.6233 39.5126L50.5809 39.5326L50.6409 46.7548L49.2793 46.7748L49.2192 39.5527H47.1567L47.1367 38.0322L52.6033 37.9922L52.6233 39.5126Z" fill="#76B82A"/>
<path fill-rule="evenodd" clip-rule="evenodd" d="M15.8593 131.744C15.8695 131.589 15.8461 131.434 15.7908 131.289C15.7355 131.144 15.6496 131.012 15.539 130.904C15.3149 130.674 15.0585 130.479 14.778 130.323L13.7768 129.783C13.4192 129.594 13.0834 129.366 12.7756 129.103C12.4592 128.799 12.2012 128.44 12.0147 128.043C11.7982 127.551 11.689 127.019 11.6943 126.482C11.715 126.006 11.8236 125.538 12.0147 125.102C12.1372 124.728 12.3425 124.386 12.6155 124.101C12.8808 123.825 13.2112 123.618 13.5766 123.501C13.9762 123.363 14.3952 123.289 14.8181 123.281C15.3163 123.282 15.813 123.335 16.2999 123.441C16.7071 123.529 17.0942 123.691 17.4412 123.921L16.9006 125.782C16.6499 125.594 16.3639 125.458 16.0596 125.382C15.6642 125.259 15.2521 125.198 14.8381 125.202C14.6646 125.188 14.4902 125.21 14.3251 125.265C14.16 125.32 14.0076 125.407 13.877 125.522C13.7718 125.631 13.6893 125.759 13.6343 125.9C13.5793 126.041 13.5529 126.191 13.5566 126.342C13.5566 126.64 13.6713 126.927 13.877 127.142C14.1065 127.365 14.3619 127.56 14.6379 127.723L15.6391 128.283C15.9967 128.472 16.3325 128.7 16.6403 128.963C16.9528 129.255 17.2105 129.6 17.4012 129.983C17.614 130.455 17.7233 130.966 17.7216 131.484C17.7304 132.006 17.656 132.526 17.5013 133.024C17.3641 133.439 17.1309 133.816 16.8205 134.124C16.5396 134.425 16.1888 134.652 15.7993 134.785C15.3671 134.931 14.9139 135.005 14.4577 135.005C13.8823 135.021 13.3079 134.947 12.7556 134.785C12.3687 134.693 11.9975 134.545 11.6543 134.345L12.215 132.464L12.5754 132.664L13.096 132.864L13.6967 133.024C13.9098 133.045 14.1244 133.045 14.3375 133.024C14.7656 133.056 15.1911 132.935 15.539 132.684C15.6564 132.559 15.7458 132.411 15.8011 132.249C15.8563 132.086 15.8762 131.914 15.8593 131.744Z" fill="white"/>
<path fill-rule="evenodd" clip-rule="evenodd" d="M18.7227 123.478L24.0691 123.418L24.0891 125.399L20.5048 125.419L20.5248 128.039L23.7887 128.019L23.8088 129.98L20.5448 130L20.5649 132.761L24.2092 132.721L24.2293 134.681L18.8228 134.721L18.7227 123.478Z" fill="white"/>
<path fill-rule="evenodd" clip-rule="evenodd" d="M25.4512 123.52L26.0719 123.4H26.7527H27.4336H28.0343C28.4515 123.389 28.8684 123.43 29.2758 123.52C29.6738 123.608 30.0489 123.779 30.3771 124.02C30.7182 124.265 30.9878 124.597 31.158 124.981C31.3749 125.464 31.4776 125.991 31.4584 126.521C31.4997 127.304 31.334 128.083 30.9778 128.782C30.6733 129.337 30.1847 129.768 29.5961 130.002L30.2369 130.502L32.3394 134.784H30.337L28.3346 130.382L27.4135 130.182V134.803H25.6314V123.64L25.4512 123.52ZM28.1544 125.201H27.6338C27.5017 125.173 27.3654 125.173 27.2333 125.201V128.462H28.0343C28.4682 128.483 28.893 128.332 29.2157 128.041C29.5277 127.644 29.6779 127.144 29.6362 126.641C29.6552 126.233 29.5193 125.833 29.2557 125.521C29.108 125.388 28.9323 125.291 28.7416 125.235C28.551 125.18 28.3503 125.168 28.1544 125.201Z" fill="white"/>
<path fill-rule="evenodd" clip-rule="evenodd" d="M36.2235 129.923L36.4638 131.844H36.5239L36.7642 129.903L38.4462 123.301L40.2884 123.281L37.0445 134.665H35.783L32.2988 123.361L34.3613 123.341L36.2235 129.923Z" fill="white"/>
<path fill-rule="evenodd" clip-rule="evenodd" d="M41.1299 123.278L42.892 123.258L42.9921 134.521L41.23 134.541L41.1299 123.278Z" fill="white"/>
<path fill-rule="evenodd" clip-rule="evenodd" d="M50.8216 134.042C50.5231 134.303 50.1659 134.489 49.7803 134.582C49.3501 134.702 48.9054 134.763 48.4587 134.762C47.9367 134.762 47.4198 134.66 46.9369 134.462C46.4291 134.238 45.9827 133.895 45.6354 133.462C45.2212 132.918 44.9153 132.3 44.7343 131.641C44.4922 130.762 44.3776 129.852 44.3939 128.941C44.3422 127.961 44.4573 126.98 44.7343 126.04C44.9259 125.381 45.2382 124.764 45.6554 124.219C46.0115 123.8 46.456 123.466 46.9569 123.239C47.4146 123.047 47.9028 122.939 48.3987 122.919C48.8422 122.912 49.2853 122.952 49.7203 123.039C50.0244 123.105 50.32 123.206 50.6013 123.339L50.2609 125.199C50.0387 125.089 49.8031 125.009 49.5601 124.959C49.2339 124.925 48.905 124.925 48.5789 124.959C48.2314 124.959 47.8899 125.05 47.5879 125.222C47.286 125.394 47.034 125.641 46.8568 125.94C46.3756 126.842 46.1604 127.861 46.2361 128.881C46.2309 129.419 46.2915 129.957 46.4163 130.481C46.5025 130.913 46.6652 131.326 46.8969 131.701C47.088 132.022 47.3565 132.291 47.6778 132.482C48.0122 132.672 48.3946 132.763 48.7791 132.742C49.1118 132.752 49.4437 132.704 49.7603 132.602C50.0057 132.511 50.2355 132.383 50.4411 132.222L50.8216 134.042Z" fill="white"/>
<path fill-rule="evenodd" clip-rule="evenodd" d="M51.8223 123.181L57.1687 123.141V125.101L53.6044 125.141L53.6244 127.742L56.8884 127.722V129.683L53.6445 129.703L53.6645 132.463L57.3089 132.423L57.3289 134.384L51.9224 134.444L51.8223 123.181Z" fill="white"/>
<path fill-rule="evenodd" clip-rule="evenodd" d="M66.6999 123.039H68.3618V130.301C68.3711 130.935 68.2971 131.567 68.1416 132.182C68.0144 132.659 67.7969 133.107 67.5008 133.502C67.2427 133.842 66.8964 134.105 66.4996 134.262C66.0846 134.425 65.6439 134.513 65.198 134.522C62.9153 134.522 61.7739 133.242 61.7539 130.641V123.099H63.516V130.201C63.4798 130.574 63.4798 130.949 63.516 131.322C63.6379 131.606 63.831 131.854 64.0767 132.042C64.2118 132.219 64.3915 132.357 64.5973 132.442C64.8347 132.495 65.0808 132.495 65.3182 132.442C65.5473 132.463 65.7779 132.422 65.9858 132.324C66.1937 132.225 66.3712 132.072 66.4996 131.882C66.7727 131.316 66.8902 130.687 66.84 130.061L66.6999 123.039Z" fill="white"/>
<path fill-rule="evenodd" clip-rule="evenodd" d="M72.167 128.38L71.4462 126.619H71.3661L71.6063 128.4L71.6464 134.261L69.9844 134.281L69.8643 122.938L71.1658 122.918L74.63 128.9L75.3308 130.62H75.3909L75.1706 128.9L75.1105 122.978L76.7926 122.958L76.8927 134.301L75.6111 134.321L72.167 128.38Z" fill="white"/>
<path d="M80.2757 122.936L78.5137 122.953L78.6258 134.216L80.3879 134.198L80.2757 122.936Z" fill="white"/>
<path fill-rule="evenodd" clip-rule="evenodd" d="M88.4264 124.82L85.8032 124.84L85.8833 134.143H84.1212L84.0411 124.86L81.398 124.88L81.3779 122.919L88.4064 122.859L88.4264 124.82Z" fill="white"/>
</g>
<defs>
<clipPath id="clip0_2_1023">
<rect width="100" height="135" fill="white"/>
</clipPath>
</defs>
</svg>
