<svg width="230" height="75" viewBox="0 0 230 75" fill="none" xmlns="http://www.w3.org/2000/svg">
<path d="M3.47695 40.6868H0V53.8648H3.47695V40.6868Z" fill="white"/>
<path d="M39.9847 40.6875H36.5078V53.8655H39.9847V40.6875Z" fill="white"/>
<path d="M5.62109 40.6875V53.8462H9.09803V48.5673L14.41 53.8462H18.8335L5.62109 40.6875Z" fill="white"/>
<path d="M18.8333 46.1783V40.6875H13.3281L18.8333 46.1783Z" fill="white"/>
<path d="M34.229 53.8462V40.6875H30.7521V45.9664L25.4401 40.6875H21.0166L34.229 53.8462Z" fill="white"/>
<path d="M21.0166 48.3743V53.8458H26.5411L21.0166 48.3743Z" fill="white"/>
<path d="M48.6963 43.2503C49.7636 43.2554 50.7856 43.6819 51.5385 44.4365C52.2914 45.1911 52.7141 46.2123 52.7141 47.2769C52.7192 47.7921 52.6207 48.3031 52.4243 48.7797L54.7423 51.0916C55.4258 50.0114 55.8066 48.7683 55.845 47.4915C55.8835 46.2148 55.5782 44.9511 54.9609 43.8319C54.3437 42.7127 53.437 41.779 52.3353 41.1278C51.2335 40.4766 49.9769 40.1318 48.6963 40.1292C47.3266 40.1163 45.9832 40.5048 44.833 41.2467L47.1317 43.5393C47.6168 43.3454 48.135 43.2472 48.6577 43.2503" fill="#62B55A"/>
<path d="M48.6964 51.2832C47.6257 51.2832 46.5989 50.859 45.8417 50.1038C45.0846 49.3487 44.6593 48.3245 44.6593 47.2566C44.6629 46.7403 44.7679 46.2298 44.9684 45.7538L42.6504 43.4419C41.7856 44.8121 41.4129 46.4345 41.5932 48.0436C41.7735 49.6526 42.4961 51.153 43.6429 52.2989C44.7896 53.4449 46.2924 54.1686 47.9053 54.3516C49.5182 54.5346 51.1456 54.166 52.5211 53.3061L50.2031 50.9942C49.7253 51.19 49.213 51.2883 48.6964 51.2832Z" fill="#F07E31"/>
<path d="M147.809 20.2284C147.404 20.6994 146.943 21.1199 146.437 21.4807C145.127 22.3398 143.581 22.7707 142.014 22.7137C140.71 22.751 139.424 22.4058 138.314 21.7208C137.205 21.0359 136.322 20.0414 135.774 18.8605C135.106 17.4736 134.775 15.9487 134.809 14.4101C134.769 12.8461 135.1 11.2949 135.774 9.88252C136.328 8.70629 137.213 7.7159 138.32 7.03182C139.428 6.34774 140.711 5.99944 142.014 6.0293C143.579 5.9836 145.122 6.41362 146.437 7.26233C146.931 7.61713 147.378 8.03127 147.77 8.49536L151.401 4.87334C150.931 4.38917 150.428 3.93852 149.895 3.52471C147.604 1.9025 144.84 1.08273 142.033 1.19351C139.763 1.15182 137.525 1.73154 135.562 2.86966C133.658 4.0257 132.129 5.70469 131.158 7.70545C130.087 9.81776 129.55 12.1591 129.593 14.5257C129.57 16.8409 130.106 19.1276 131.158 21.1917C132.15 23.1428 133.678 24.7729 135.562 25.8926C137.523 27.0366 139.761 27.6229 142.033 27.5881C144.842 27.6932 147.607 26.8666 149.895 25.2376C150.449 24.8199 150.96 24.3488 151.421 23.8312L147.809 20.2284Z" fill="white"/>
<path d="M93.5877 13.9478C94.0715 13.6327 94.5074 13.2499 94.8819 12.8111C95.9041 11.5726 96.4336 10.0021 96.3693 8.39917C96.4102 7.43038 96.2318 6.46484 95.8472 5.57429C95.4626 4.68373 94.8818 3.89104 94.1479 3.25512C92.3845 1.93442 90.2061 1.28534 88.0053 1.42484H78.2119V27.3955H88.1405C90.4902 27.5515 92.813 26.8227 94.6501 25.3533C95.4159 24.6746 96.0224 23.8359 96.4264 22.8968C96.8303 21.9578 97.0219 20.9415 96.9874 19.9203C96.993 18.2642 96.3958 16.6623 95.3069 15.412C94.8141 14.8319 94.2342 14.3315 93.5877 13.9285V13.9478ZM83.3307 12.0019V5.99091H87.3679C88.4213 5.90222 89.4728 6.18146 90.3426 6.78082C90.628 7.05609 90.85 7.38986 90.9934 7.75908C91.1368 8.12831 91.1982 8.52418 91.1732 8.91935C91.2044 9.32546 91.1443 9.73339 90.9972 10.1134C90.8502 10.4933 90.6199 10.8358 90.3233 11.1157C89.5071 11.7063 88.5091 11.9927 87.5031 11.9249L83.3307 12.0019ZM87.5031 16.2405C88.6708 16.1431 89.8351 16.4642 90.7869 17.146C91.1264 17.4368 91.3938 17.8021 91.5681 18.2132C91.7423 18.6243 91.8188 19.0702 91.7913 19.5157C91.8188 19.9641 91.7425 20.4127 91.5683 20.827C91.3942 21.2413 91.1268 21.61 90.7869 21.9047C89.872 22.555 88.7591 22.8683 87.6383 22.7909H83.3307V16.2405H87.5031Z" fill="white"/>
<path d="M111.552 1.42578L101.739 27.3965H107.244L109.176 21.8478H118.313L120.244 27.3965H125.75L116.13 1.42578H111.552ZM110.876 17.3396L113.831 9.22855L116.767 17.3396H110.876Z" fill="white"/>
<path d="M173.654 11.7909H163.494V1.42578H158.375V27.3772H163.494V16.3185H173.654V27.3772H178.831V1.42578H173.654V11.7909Z" fill="white"/>
<path d="M187.466 27.3772H202.726V22.8689H192.585V16.5111H201.721V12.1185H192.585V5.95331H202.726V1.42578H187.466V27.3772Z" fill="white"/>
<path d="M223.22 17.1663C224.698 16.8222 226.041 16.0516 227.083 14.9507C228.393 13.4717 229.085 11.5478 229.015 9.57545C229.048 8.47437 228.849 7.37857 228.43 6.35946C228.01 5.34035 227.38 4.42082 226.581 3.66076C224.682 2.05251 222.227 1.25021 219.743 1.4259H210.838V27.3773H215.957V17.6094H217.753L224.07 27.3773H230L223.22 17.1663ZM223.741 9.72958C223.741 11.4057 223.258 13.3516 219.472 13.3516H215.957V6.12682H219.472C223.336 6.12682 223.741 8.05343 223.741 9.72958Z" fill="white"/>
<path d="M39.7529 5.95331V1.42578H24.4736V27.3772H39.7529V22.8689H29.5925V16.5111H38.7291V12.1185H29.5925V5.95331H39.7529Z" fill="white"/>
<path d="M10.3343 20.2678C10.368 20.9602 10.156 21.6424 9.73545 22.1944C9.48844 22.4483 9.18453 22.64 8.84872 22.7539C8.5129 22.8678 8.15479 22.9005 7.80381 22.8494C7.44125 22.8708 7.0786 22.8089 6.74374 22.6687C6.40888 22.5284 6.11072 22.3134 5.87218 22.0403C5.5023 21.5165 5.27592 20.9056 5.21542 20.2678L5.09952 19.3815H0L0.0965818 20.4797C0.189024 22.325 0.919363 24.0814 2.16343 25.4504C2.92168 26.2026 3.82825 26.7896 4.82574 27.1743C5.82324 27.559 6.88995 27.733 7.95834 27.6852C8.95017 27.753 9.94538 27.617 10.8824 27.2856C11.8193 26.9542 12.6781 26.4345 13.4056 25.7586C14.07 25.032 14.5829 24.181 14.9145 23.2548C15.2462 22.3287 15.3898 21.3461 15.3372 20.3641V1.42554H10.3343V20.2678Z" fill="white"/>
<path d="M47.3633 7.24219V27.3753H52.4821V12.3477L47.3633 7.24219Z" fill="white"/>
<path d="M63.8604 1.42578V16.4726L68.9792 21.5781V1.42578H63.8604Z" fill="white"/>
<path d="M47.3633 0V7.24405L68.9783 28.8221V21.578L47.3633 0Z" fill="#62B55A"/>
<path d="M7.99697 69.357C8.04853 70.0338 7.95838 70.7138 7.73225 71.3539C7.50612 71.9941 7.14896 72.5803 6.68346 73.0754C6.29966 73.4303 5.83591 73.688 5.33132 73.8267C4.77836 73.981 4.20549 74.0524 3.63148 74.0387H0V64.4056H3.51558C4.12672 64.389 4.73735 64.4538 5.33132 64.5983C5.89593 64.7688 6.4081 65.079 6.82014 65.5001C7.23219 65.9212 7.53071 66.4394 7.68791 67.0065C7.92429 67.7668 8.02881 68.5617 7.99697 69.357ZM6.06534 69.357C6.16927 68.4218 5.90621 67.4828 5.33132 66.7368C5.07893 66.5144 4.77262 66.3616 4.44276 66.2937C3.91578 66.248 3.38581 66.248 2.85882 66.2937H1.98959V72.613H3.419C3.81065 72.6547 4.20564 72.6547 4.5973 72.613C4.91093 72.5345 5.1964 72.3703 5.42161 72.1388C5.64682 71.9074 5.80286 71.6179 5.87218 71.3029C6.04059 70.6097 6.08634 69.8925 6.00739 69.1836L6.06534 69.357Z" fill="white"/>
<path d="M11.4359 66.1022H9.62012V64.4067H11.4359V66.1022ZM11.4359 73.9435H9.62012V67.0462H11.4359V73.9435Z" fill="white"/>
<path d="M19.1624 71.7844C19.1777 72.1512 19.0877 72.5146 18.9029 72.8321C18.7181 73.1495 18.4462 73.4077 18.1193 73.5762C17.4817 73.9466 16.7511 74.1271 16.0138 74.0964C14.0822 74.0964 13.0584 73.3835 12.6914 71.9578L14.623 71.6881C14.6845 72.0241 14.8733 72.3235 15.1503 72.5244C15.4272 72.7253 15.771 72.8122 16.1104 72.767C16.9796 72.767 17.4239 72.5166 17.4239 72.0349C17.4239 71.5532 17.1728 71.5533 16.6706 71.4377C15.6971 71.2865 14.7525 70.9876 13.8697 70.5514C13.6051 70.3879 13.3888 70.1573 13.2429 69.8831C13.097 69.6089 13.0266 69.301 13.0391 68.9909C13.0392 68.6565 13.1265 68.3279 13.2924 68.0374C13.4584 67.7469 13.6973 67.5045 13.9856 67.334C14.5799 67.0212 15.2457 66.8685 15.9172 66.8909C16.5777 66.8526 17.2382 66.9646 17.8489 67.2184C18.1334 67.371 18.3821 67.5822 18.5786 67.8379C18.7751 68.0937 18.9148 68.3882 18.9885 68.7019L17.2694 69.0294C17.1149 68.4707 16.6899 68.2009 15.9752 68.2009C15.2605 68.2009 14.7196 68.3936 14.7196 68.7597C14.7187 68.8267 14.7362 68.8926 14.7703 68.9504C14.8043 69.0081 14.8536 69.0555 14.9128 69.0872C15.4658 69.364 16.0589 69.5526 16.6706 69.6459C17.3659 69.7606 18.0263 70.0306 18.6022 70.4358C18.795 70.6011 18.9461 70.8093 19.0434 71.0436C19.1407 71.2778 19.1815 71.5316 19.1624 71.7844Z" fill="white"/>
<path d="M24.0676 73.8271C23.6065 74.0089 23.1147 74.1005 22.6189 74.0968C22.3439 74.1237 22.0666 74.0834 21.8108 73.9794C21.555 73.8753 21.3285 73.7106 21.1508 73.4996C21.0119 73.285 20.9259 73.0408 20.8997 72.7867C20.8596 72.3574 20.8596 71.9252 20.8997 71.4959V68.4904H20.0498V67.0454H20.8997V65.6775L22.7155 64.5986V67.0454H23.971V68.4904H22.7155V71.9198C22.7095 72.0226 22.7253 72.1254 22.762 72.2217C22.7986 72.318 22.8551 72.4055 22.9279 72.4785C23.0142 72.55 23.1253 72.5846 23.237 72.5748C23.4893 72.556 23.7371 72.4975 23.971 72.4014L24.0676 73.8271Z" fill="white"/>
<path d="M29.6123 67.2202L29.0521 68.8193C28.8007 68.647 28.5067 68.547 28.2022 68.5303C27.6613 68.5303 27.2943 68.8385 27.1204 69.4936C26.9888 70.2568 26.937 71.0316 26.9659 71.8055V73.9441H25.1309V67.0468H26.8886V68.0294C27.0669 67.7345 27.281 67.4627 27.5261 67.2202C27.7898 66.9975 28.1273 66.8808 28.4726 66.8927C28.8751 66.8978 29.2688 67.0109 29.6123 67.2202Z" fill="white"/>
<path d="M32.2384 66.1022H30.4033V64.4067H32.2384V66.1022ZM32.2384 73.9435H30.4033V67.0462H32.2384V73.9435Z" fill="white"/>
<path d="M40.757 70.4167C40.786 71.3 40.5507 72.1719 40.081 72.9213C39.8515 73.2945 39.5266 73.6 39.1396 73.8066C38.7526 74.0131 38.3175 74.1132 37.8789 74.0965C37.4478 74.1007 37.0227 73.9949 36.6441 73.7892C36.2655 73.5835 35.9458 73.2848 35.7155 72.9213V73.9424H34.0156V64.3093H35.8314V67.7387C36.0952 67.4315 36.4246 67.187 36.7953 67.023C37.166 66.859 37.5687 66.7797 37.9741 66.7908C38.3795 66.8019 38.7773 66.9031 39.1385 67.0871C39.4996 67.2711 39.815 67.5332 40.0616 67.8543C40.5717 68.608 40.8163 69.5093 40.757 70.4167ZM38.8254 70.513C38.8254 69.0295 38.3232 68.2781 37.2994 68.2781C37.0591 68.2694 36.8209 68.3257 36.6101 68.441C36.3992 68.5563 36.2236 68.7264 36.1018 68.9332C35.8604 69.3613 35.7465 69.8492 35.7734 70.3396C35.7394 70.886 35.8528 71.4316 36.1018 71.9194C36.2293 72.1397 36.4121 72.3231 36.6323 72.4515C36.8525 72.5798 37.1023 72.6488 37.3574 72.6515C37.6025 72.6628 37.8455 72.601 38.0553 72.4741C38.2652 72.3471 38.4324 72.1608 38.5357 71.9387C38.7614 71.497 38.8805 71.0088 38.8833 70.513H38.8254Z" fill="white"/>
<path d="M48.4836 73.9449H46.7838V72.9045C46.54 73.2833 46.2017 73.5925 45.8022 73.8019C45.4027 74.0113 44.9555 74.1136 44.5044 74.099C44.0797 74.1452 43.6512 74.0564 43.2801 73.8454C42.9089 73.6344 42.6141 73.3118 42.4376 72.9238C42.2624 72.4361 42.1837 71.9193 42.2058 71.4017V67.0476H44.0215V70.2072C44.0215 70.9779 44.0215 71.3825 44.0215 71.4403C44.015 71.643 44.0532 71.8446 44.1333 72.031C44.2134 72.2175 44.3335 72.3841 44.4851 72.5192C44.6866 72.6484 44.9217 72.7154 45.1612 72.7118C45.4498 72.7056 45.7308 72.6188 45.9725 72.4614C46.2271 72.3164 46.4195 72.0834 46.5133 71.8063C46.6354 71.1718 46.6808 70.525 46.6485 69.8797V67.0476H48.4643L48.4836 73.9449Z" fill="white"/>
<path d="M53.6997 73.8271C53.2386 74.0089 52.7467 74.1005 52.2509 74.0968C51.9761 74.1221 51.6993 74.081 51.4438 73.9771C51.1882 73.8731 50.9616 73.7093 50.7829 73.4996C50.644 73.2851 50.5579 73.0408 50.5318 72.7867C50.4885 72.3575 50.4885 71.9251 50.5318 71.4959V68.4904H49.7012V67.0454H50.5318V65.6775L52.3668 64.5986V67.0454H53.6224V68.4904H52.3668V71.9198C52.3609 72.0226 52.3767 72.1254 52.4133 72.2217C52.4499 72.318 52.5065 72.4055 52.5793 72.4785C52.6655 72.55 52.7766 72.5846 52.8884 72.5748C53.1407 72.556 53.3884 72.4975 53.6224 72.4014L53.6997 73.8271Z" fill="white"/>
<path d="M61.6581 70.4759C61.6741 70.9516 61.5933 71.4256 61.4207 71.8693C61.248 72.3129 60.9871 72.7172 60.6537 73.0576C60.3257 73.3998 59.9292 73.6694 59.4899 73.8486C59.0506 74.0279 58.5783 74.1128 58.1039 74.098C57.4741 74.0972 56.8529 73.9522 56.2882 73.6741C55.7323 73.3913 55.2747 72.9482 54.9747 72.4026C54.6676 71.8074 54.5148 71.1451 54.5304 70.4759C54.5215 69.8567 54.6747 69.2458 54.9747 68.7035C55.263 68.1525 55.706 67.6972 56.2495 67.3934C56.8456 67.0873 57.5113 66.9412 58.1812 66.9695C58.6555 66.9506 59.1287 67.0298 59.5708 67.2022C60.013 67.3746 60.4146 67.6365 60.7502 67.9714C61.0596 68.3086 61.299 68.7034 61.4548 69.1333C61.6107 69.5631 61.6797 70.0194 61.6581 70.4759ZM59.7265 70.4759C59.745 69.964 59.6032 69.4589 59.3208 69.031C59.172 68.8279 58.9772 68.6628 58.7523 68.5489C58.5275 68.4351 58.2788 68.3757 58.0266 68.3757C57.7744 68.3757 57.5258 68.4351 57.3009 68.5489C57.0761 68.6628 56.8813 68.8279 56.7324 69.031C56.4802 69.4745 56.3475 69.9757 56.3475 70.4856C56.3475 70.9955 56.4802 71.4967 56.7324 71.9402C56.8718 72.1541 57.0642 72.3285 57.2909 72.4466C57.5176 72.5647 57.771 72.6226 58.0266 72.6145C58.2826 72.6245 58.5367 72.5675 58.7637 72.4492C58.9908 72.3309 59.1828 72.1554 59.3208 71.9402C59.6059 71.5063 59.7478 70.9943 59.7265 70.4759Z" fill="white"/>
<path d="M67.453 67.2213L66.8928 68.8204C66.6359 68.6447 66.3347 68.5446 66.0236 68.5314C65.502 68.5314 65.135 68.8397 64.9612 69.4947C64.8295 70.2579 64.7777 71.0328 64.8066 71.8067V73.9452H62.875V67.0479H64.5748V68.0305C64.7531 67.7356 64.9672 67.4638 65.2123 67.2213C65.476 66.9987 65.8134 66.8819 66.1588 66.8938C66.6132 66.8729 67.0636 66.9868 67.453 67.2213Z" fill="white"/>
<path d="M79.2359 73.9424H77.3042L73.441 67.7194V73.9424H71.6445V64.3093H73.5762L77.4394 70.6671V64.3093H79.2359V73.9424Z" fill="white"/>
<path d="M87.2135 71.0141H82.6355C82.627 71.4441 82.763 71.8646 83.0219 72.2086C83.1496 72.3775 83.3165 72.5131 83.5082 72.6037C83.7 72.6943 83.9109 72.7372 84.1229 72.7287C84.4046 72.7325 84.6784 72.6355 84.8946 72.4552C85.1108 72.275 85.255 72.0234 85.3012 71.7462L87.1169 72.0544C86.9216 72.6854 86.5169 73.2313 85.9692 73.6025C85.4216 73.9736 84.7637 74.1479 84.1036 74.0966C83.5964 74.1362 83.0874 74.0496 82.6221 73.8445C82.1568 73.6393 81.7499 73.3222 81.4379 72.9214C80.9651 72.1818 80.7139 71.3229 80.7139 70.4457C80.7139 69.5685 80.9651 68.7096 81.4379 67.97C81.7257 67.6169 82.092 67.3356 82.5077 67.1483C82.9235 66.9611 83.3773 66.873 83.8331 66.8911C84.335 66.853 84.8381 66.9467 85.2923 67.1631C85.7465 67.3795 86.1359 67.7108 86.4215 68.1241C86.9832 68.9806 87.2602 69.9917 87.2135 71.0141ZM85.3978 69.8966C85.4065 69.4993 85.2918 69.109 85.0694 68.7792C84.9465 68.623 84.7896 68.4966 84.6106 68.4098C84.4315 68.3229 84.2351 68.2778 84.036 68.2778C83.8369 68.2778 83.6404 68.3229 83.4614 68.4098C83.2823 68.4966 83.1254 68.623 83.0025 68.7792C82.7589 69.0995 82.6358 69.495 82.6548 69.8966H85.3978Z" fill="white"/>
<path d="M98.0503 67.0476L95.8289 73.9449H94.0711L92.8735 69.4944L91.6952 73.9449H89.9181L87.7354 67.0476H89.5125L90.8067 71.5559L92.0043 67.0476H93.7621L94.921 71.5559L96.2346 67.0476H98.0503Z" fill="white"/>
<path d="M110.219 69.3581C110.219 70.2829 110.219 70.8994 110.219 71.2847C110.173 71.914 109.945 72.5164 109.562 73.0187C109.175 73.4017 108.707 73.6952 108.193 73.8783C107.679 74.0614 107.131 74.1297 106.588 74.0783C106.005 74.1426 105.415 74.0736 104.863 73.8767C104.31 73.6797 103.81 73.3599 103.4 72.9416C103.146 72.6386 102.961 72.2834 102.86 71.9012C102.715 71.1004 102.65 70.2873 102.666 69.4737V64.4067H104.598V69.5701C104.551 70.1021 104.551 70.6371 104.598 71.1691C104.772 72.0168 105.39 72.46 106.53 72.46C107.669 72.46 108.133 72.0746 108.268 71.304C108.343 70.768 108.376 70.2268 108.365 69.6856V64.4067H110.296L110.219 69.3581Z" fill="white"/>
<path d="M118.564 73.9418H116.729V70.4161C116.747 70.0631 116.747 69.7095 116.729 69.3565C116.719 69.1816 116.673 69.0107 116.593 68.8547C116.513 68.6987 116.402 68.5612 116.265 68.451C116.075 68.3306 115.853 68.2701 115.628 68.2776C115.331 68.2719 115.041 68.3595 114.797 68.528C114.54 68.6878 114.348 68.9337 114.256 69.2216C114.139 69.746 114.093 70.284 114.121 70.8207V73.9418H112.189V67.0445H113.889V68.0464C114.149 67.6859 114.491 67.3928 114.888 67.1917C115.284 66.9905 115.724 66.8872 116.169 66.8904C116.529 66.8484 116.895 66.8969 117.232 67.0314C117.57 67.166 117.868 67.3824 118.1 67.6611C118.448 68.2411 118.61 68.9133 118.564 69.5877V73.9418Z" fill="white"/>
<path d="M122.254 66.1022H120.322V64.4067H122.254V66.1022ZM122.254 73.9435H120.322V67.0462H122.254V73.9435Z" fill="white"/>
<path d="M127.333 73.8271C126.872 74.0089 126.38 74.1005 125.885 74.0968C125.61 74.1221 125.333 74.081 125.077 73.9771C124.822 73.8731 124.595 73.7093 124.416 73.4996C124.278 73.2851 124.191 73.0408 124.165 72.7867C124.125 72.3574 124.125 71.9252 124.165 71.4959V68.4904H123.315V67.0454H124.165V65.6775L125.981 64.5986V67.0454H127.333V68.4904H126.078V71.9198C126.072 72.0226 126.088 72.1254 126.124 72.2217C126.161 72.318 126.217 72.4055 126.29 72.4785C126.376 72.55 126.487 72.5846 126.599 72.5748C126.852 72.556 127.099 72.4975 127.333 72.4014V73.8271Z" fill="white"/>
<path d="M134.384 71.785C134.401 72.1498 134.314 72.5118 134.133 72.829C133.952 73.1463 133.684 73.4056 133.36 73.5768C132.713 73.9401 131.978 74.12 131.235 74.097C129.304 74.097 128.28 73.3841 127.913 71.9584L129.845 71.6887C129.902 72.0231 130.087 72.3224 130.36 72.5236C130.634 72.7249 130.976 72.8123 131.313 72.7676C132.182 72.7676 132.626 72.5171 132.626 72.0355C132.626 71.5538 132.375 71.5538 131.892 71.4382C130.913 71.286 129.962 70.9872 129.072 70.552C128.828 70.3689 128.631 70.1306 128.497 69.8567C128.363 69.5829 128.296 69.2813 128.302 68.9767C128.308 68.6721 128.386 68.3732 128.53 68.1044C128.673 67.8357 128.879 67.6049 129.13 67.4309C129.721 67.1102 130.389 66.957 131.062 66.9878C131.722 66.9496 132.383 67.0616 132.993 67.3153C133.278 67.4697 133.529 67.6811 133.728 67.9364C133.927 68.1917 134.072 68.4853 134.152 68.7988L132.414 69.1263C132.259 68.5676 131.834 68.2979 131.12 68.2979C130.405 68.2979 129.883 68.4905 129.883 68.8566C129.882 68.9214 129.898 68.9853 129.928 69.0426C129.959 69.0998 130.003 69.1485 130.057 69.1841C130.612 69.4573 131.204 69.6456 131.815 69.7428C132.508 69.8643 133.167 70.1337 133.747 70.5327C133.938 70.6822 134.095 70.8718 134.205 71.0882C134.315 71.3046 134.376 71.5425 134.384 71.785Z" fill="white"/>
<path d="M148.041 72.7688L146.92 74.1945C146.353 73.9081 145.832 73.5379 145.375 73.0963C144.606 73.7658 143.614 74.1233 142.593 74.0982C142.1 74.1376 141.603 74.0683 141.139 73.8952C140.675 73.7221 140.255 73.4493 139.908 73.0963C139.455 72.6175 139.206 71.9822 139.213 71.3238C139.243 70.6768 139.467 70.0536 139.856 69.5349C140.246 69.0163 140.782 68.626 141.396 68.4147C140.837 67.8472 140.489 67.1062 140.411 66.3147C140.397 65.9994 140.468 65.6862 140.618 65.4082C140.767 65.1301 140.989 64.8975 141.261 64.7348C141.804 64.396 142.436 64.2281 143.076 64.2532C143.725 64.2279 144.363 64.4176 144.892 64.7926C145.153 64.9773 145.363 65.2236 145.505 65.5094C145.646 65.7953 145.715 66.1117 145.703 66.4303C145.701 66.9357 145.5 67.42 145.143 67.7789C144.793 68.1379 144.397 68.4489 143.965 68.7037L145.298 70.4376C145.478 70.0966 145.615 69.734 145.703 69.3587L147.345 69.744C147.229 70.1871 147.113 70.5339 147.036 70.7651C146.912 71.0948 146.743 71.406 146.534 71.6899C146.975 72.1279 147.484 72.4922 148.041 72.7688ZM144.177 71.8633L142.246 69.5706C141.894 69.701 141.588 69.9308 141.365 70.2319C141.142 70.533 141.012 70.8923 140.99 71.266C140.983 71.4493 141.015 71.632 141.085 71.8016C141.155 71.9712 141.261 72.1237 141.396 72.2486C141.68 72.4899 142.046 72.6139 142.42 72.5954C143.084 72.588 143.721 72.3259 144.197 71.8633H144.177ZM144.177 66.3917C144.184 66.2683 144.159 66.1454 144.105 66.0342C144.051 65.923 143.969 65.8273 143.868 65.7559C143.677 65.6041 143.436 65.5286 143.192 65.544C142.973 65.5393 142.758 65.5996 142.574 65.7174C142.478 65.7704 142.398 65.8487 142.344 65.9439C142.289 66.039 142.262 66.1473 142.265 66.2569C142.304 66.5745 142.454 66.8682 142.69 67.0853L143.134 67.6055L143.617 67.2202C143.753 67.1255 143.867 67.0023 143.95 66.8592C144.034 66.7161 144.085 66.5565 144.1 66.3917H144.177Z" fill="white"/>
<path d="M160.171 71.1686C160.178 71.7235 160.016 72.2675 159.708 72.7292C159.391 73.1853 158.948 73.54 158.433 73.7503C157.767 74.0002 157.058 74.118 156.347 74.0971C155.875 74.1561 155.396 74.117 154.941 73.9822C154.485 73.8474 154.062 73.6198 153.699 73.3138C153.336 73.0079 153.041 72.6302 152.832 72.2046C152.622 71.779 152.504 71.3147 152.483 70.8411L154.415 70.6677C154.43 70.9244 154.496 71.1755 154.609 71.4063C154.722 71.6372 154.881 71.843 155.075 72.0118C155.27 72.1806 155.496 72.3088 155.741 72.389C155.986 72.4692 156.244 72.4997 156.501 72.4787C156.932 72.4932 157.358 72.3935 157.737 72.1898C157.93 72.0979 158.093 71.953 158.206 71.772C158.319 71.5911 158.377 71.3818 158.375 71.1686C158.375 70.7255 158.085 70.398 157.486 70.1861L155.941 69.7622C155.148 69.6257 154.4 69.302 153.758 68.8182C153.479 68.5813 153.257 68.2856 153.106 67.9524C152.956 67.6192 152.882 67.2569 152.889 66.8916C152.849 66.4062 152.964 65.9208 153.217 65.5044C153.512 65.0844 153.921 64.757 154.396 64.5604C155.011 64.3233 155.668 64.2119 156.327 64.2329C157.216 64.1885 158.097 64.4099 158.858 64.8686C159.217 65.1243 159.508 65.463 159.706 65.8556C159.905 66.2483 160.005 66.6831 159.997 67.1228H158.066C158.017 66.707 157.818 66.3232 157.506 66.0439C157.145 65.8283 156.727 65.7275 156.308 65.7549C155.844 65.7268 155.384 65.8484 154.995 66.1017C154.898 66.1682 154.819 66.2575 154.765 66.3617C154.711 66.4659 154.684 66.5817 154.685 66.6989C154.686 66.8082 154.713 66.9158 154.763 67.0129C154.814 67.11 154.886 67.1939 154.975 67.2576C155.521 67.5899 156.123 67.8185 156.752 67.9319C157.466 68.0877 158.164 68.3069 158.838 68.587C159.293 68.8363 159.662 69.2152 159.9 69.675C160.137 70.1349 160.232 70.6549 160.171 71.1686Z" fill="white"/>
<path d="M167.724 71.0172H163.127C163.13 71.4453 163.265 71.8621 163.513 72.2117C163.644 72.3822 163.814 72.5185 164.009 72.6091C164.204 72.6997 164.419 72.7418 164.633 72.7319C164.913 72.735 165.184 72.6373 165.397 72.4567C165.61 72.2762 165.751 72.0249 165.792 71.7493L167.724 72.0576C167.529 72.6885 167.124 73.2345 166.576 73.6056C166.029 73.9767 165.371 74.151 164.711 74.0998C164.203 74.1429 163.693 74.0579 163.227 73.8525C162.761 73.6471 162.355 73.3279 162.045 72.9245C161.555 72.2268 161.31 71.3866 161.35 70.5355C161.304 69.6212 161.57 68.7183 162.103 67.9731C162.421 67.6212 162.811 67.3426 163.248 67.1567C163.684 66.9709 164.156 66.8822 164.631 66.8968C165.105 66.9115 165.571 67.0292 165.995 67.2417C166.419 67.4542 166.792 67.7564 167.087 68.1273C167.594 69.0014 167.817 70.0113 167.724 71.0172ZM165.792 69.8997C165.801 69.5024 165.686 69.1121 165.464 68.7823C165.347 68.6218 165.193 68.4922 165.015 68.4049C164.836 68.3175 164.639 68.2751 164.44 68.2814C164.239 68.2753 164.039 68.3176 163.857 68.4048C163.676 68.492 163.518 68.6215 163.397 68.7823C163.175 69.1121 163.06 69.5024 163.069 69.8997H165.792Z" fill="white"/>
<path d="M173.693 67.2213L173.133 68.8204C172.876 68.6447 172.575 68.5446 172.264 68.5314C171.742 68.5314 171.375 68.8397 171.201 69.4947C171.07 70.2579 171.018 71.0328 171.047 71.8067V73.9452H169.115V67.0479H170.815V68.0305C170.993 67.7356 171.207 67.4638 171.453 67.2213C171.716 66.9987 172.054 66.8819 172.399 66.8938C172.853 66.8729 173.304 66.9868 173.693 67.2213Z" fill="white"/>
<path d="M180.685 67.0476L177.942 73.9449H176.3L173.519 67.0476H175.45L176.764 70.554L177.131 71.7293L177.324 71.1513C177.377 70.9486 177.441 70.7492 177.517 70.554L178.831 67.0476H180.685Z" fill="white"/>
<path d="M183.486 66.1022H181.651V64.4067H183.486V66.1022ZM183.486 73.9435H181.651V67.0462H183.486V73.9435Z" fill="white"/>
<path d="M191.464 71.5932C191.354 72.3412 190.96 73.0182 190.363 73.4844C189.766 73.9505 189.012 74.1701 188.258 74.0978C187.795 74.1233 187.333 74.0448 186.905 73.868C186.477 73.6913 186.095 73.4208 185.785 73.0767C185.234 72.3245 184.938 71.417 184.938 70.4854C184.938 69.5538 185.234 68.6464 185.785 67.8941C186.104 67.5527 186.494 67.2857 186.928 67.1125C187.363 66.9393 187.83 66.8641 188.297 66.8923C188.985 66.8263 189.675 67.0101 190.239 67.4099C190.803 67.8097 191.204 68.3988 191.368 69.0694L189.571 69.3969C189.562 69.2432 189.521 69.093 189.453 68.9552C189.384 68.8173 189.288 68.6945 189.171 68.594C189.054 68.4935 188.918 68.4173 188.771 68.3699C188.625 68.3225 188.47 68.3049 188.316 68.318C187.311 68.318 186.809 68.9923 186.809 70.3602C186.809 71.7281 187.331 72.6143 188.335 72.6143C189.34 72.6143 189.494 72.1712 189.668 71.3042L191.464 71.5932Z" fill="white"/>
<path d="M198.688 71.0164H194.11C194.101 71.4464 194.237 71.8669 194.496 72.2109C194.624 72.3798 194.791 72.5154 194.982 72.606C195.174 72.6966 195.385 72.7395 195.597 72.7311C195.879 72.7349 196.153 72.6378 196.369 72.4576C196.585 72.2773 196.729 72.0257 196.775 71.7485L198.591 72.0568C198.396 72.6877 197.991 73.2337 197.443 73.6048C196.896 73.9759 196.238 74.1502 195.578 74.099C195.071 74.1386 194.562 74.0519 194.096 73.8468C193.631 73.6417 193.224 73.3245 192.912 72.9237C192.452 72.1747 192.218 71.3092 192.239 70.431C192.259 69.5528 192.533 68.6991 193.028 67.9723C193.344 67.6208 193.733 67.3424 194.168 67.1566C194.603 66.9708 195.073 66.8821 195.546 66.8968C196.019 66.9115 196.483 67.0292 196.906 67.2416C197.328 67.454 197.699 67.756 197.992 68.1265C198.52 68.9941 198.763 70.0044 198.688 71.0164ZM196.872 69.8989C196.881 69.5016 196.766 69.1113 196.544 68.7815C196.421 68.6253 196.264 68.499 196.085 68.4121C195.906 68.3252 195.709 68.2801 195.51 68.2801C195.311 68.2801 195.115 68.3252 194.936 68.4121C194.757 68.499 194.6 68.6253 194.477 68.7815C194.232 69.1005 194.115 69.4987 194.148 69.8989H196.872Z" fill="white"/>
<path d="M205.99 71.785C206.007 72.1498 205.92 72.5118 205.738 72.829C205.557 73.1463 205.289 73.4056 204.966 73.5768C204.326 73.9404 203.597 74.1204 202.861 74.097C200.929 74.097 199.905 73.3841 199.538 71.9584L201.47 71.6887C201.531 72.0247 201.72 72.3241 201.997 72.525C202.274 72.7259 202.618 72.8128 202.957 72.7676C203.826 72.7676 204.271 72.5171 204.271 72.0355C204.271 71.5538 204.019 71.5538 203.517 71.4382C202.544 71.287 201.599 70.9882 200.716 70.552C200.452 70.3885 200.236 70.1579 200.09 69.8837C199.944 69.6095 199.873 69.3016 199.886 68.9915C199.879 68.6801 199.954 68.3724 200.103 68.0988C200.252 67.8251 200.47 67.5949 200.736 67.4309C201.33 67.1182 201.996 66.9654 202.667 66.9878C203.328 66.9496 203.988 67.0616 204.599 67.3153C204.883 67.4679 205.132 67.6791 205.329 67.9348C205.525 68.1906 205.665 68.4851 205.739 68.7988L204.019 69.1263C203.865 68.5676 203.44 68.2979 202.725 68.2979C202.011 68.2979 201.47 68.4905 201.47 68.8566C201.469 68.9236 201.486 68.9896 201.52 69.0473C201.554 69.1051 201.604 69.1524 201.663 69.1841C202.216 69.461 202.809 69.6495 203.421 69.7428C204.116 69.8575 204.776 70.1276 205.352 70.5327C205.547 70.6793 205.706 70.8683 205.816 71.0854C205.927 71.3024 205.986 71.5417 205.99 71.785Z" fill="white"/>
</svg>
