<svg width="100" height="135" viewBox="0 0 100 135" fill="none" xmlns="http://www.w3.org/2000/svg">
<path d="M66.6799 12.9844V31.2098C73.0435 34.8805 78.017 40.5466 80.829 47.3292C83.641 54.1118 84.1343 61.6319 82.2325 68.7232C80.3307 75.8145 76.14 82.0807 70.3103 86.5499C64.4807 91.0191 57.338 93.4415 49.9899 93.4415C42.6418 93.4415 35.499 91.0191 29.6694 86.5499C23.8397 82.0807 19.649 75.8145 17.7472 68.7232C15.8454 61.6319 16.3387 54.1118 19.1507 47.3292C21.9627 40.5466 26.9362 34.8805 33.2998 31.2098V12.9844C22.1668 16.9178 12.7839 24.6567 6.80951 34.8333C0.835084 45.0099 -1.34625 56.969 0.651027 68.597C2.64831 80.225 8.6956 90.7732 17.7242 98.3775C26.7527 105.982 38.1812 110.152 49.9899 110.152C61.7985 110.152 73.227 105.982 82.2556 98.3775C91.2841 90.7732 97.3314 80.225 99.3287 68.597C101.326 56.969 99.1446 45.0099 93.1702 34.8333C87.1958 24.6567 77.8129 16.9178 66.6799 12.9844Z" fill="#76B82A"/>
<path d="M58.1891 -0.00503798L41.5693 0.0703125L41.8023 51.365L58.4221 51.2896L58.1891 -0.00503798Z" fill="#007F33"/>
<path fill-rule="evenodd" clip-rule="evenodd" d="M51.1415 3.72266H52.4431V9.36433C52.4526 9.85721 52.3919 10.3489 52.2628 10.8248C52.1639 11.1904 52.0013 11.5358 51.7823 11.8451C51.5688 12.0995 51.3023 12.3044 51.0013 12.4452C50.6742 12.5674 50.3292 12.635 49.9801 12.6453C48.218 12.6453 47.3169 11.645 47.2969 9.6244V3.76267H48.6785V9.2843C48.6863 9.58007 48.7198 9.8746 48.7787 10.1646C48.8054 10.3699 48.8886 10.5638 49.0189 10.7247C49.1126 10.8734 49.2537 10.9862 49.4194 11.0448C49.6048 11.0782 49.7947 11.0782 49.9801 11.0448C50.1563 11.0615 50.3337 11.0292 50.4927 10.9515C50.6516 10.8738 50.7861 10.7538 50.8812 10.6047C51.0976 10.164 51.1943 9.67411 51.1615 9.18427L51.1415 3.72266Z" fill="white"/>
<path fill-rule="evenodd" clip-rule="evenodd" d="M49.1586 19.3858L48.5979 18.0054H48.5579L48.7381 19.3858L48.7781 23.9471L47.4766 23.9671L47.3965 15.1445H48.3977L51.0809 19.7859L51.6416 21.1063H51.6816L51.5014 19.7659L51.4614 15.1645H52.7629L52.843 23.9671L51.8418 23.9872L49.1586 19.3858Z" fill="white"/>
<path fill-rule="evenodd" clip-rule="evenodd" d="M49.0986 26.7695H50.4603L50.5404 35.5121L49.1787 35.5321L49.0986 26.7695Z" fill="white"/>
<path fill-rule="evenodd" clip-rule="evenodd" d="M52.6233 39.5126L50.5809 39.5326L50.6409 46.7548L49.2793 46.7748L49.2192 39.5527H47.1567L47.1367 38.0322L52.6033 37.9922L52.6233 39.5126Z" fill="white"/>
<path fill-rule="evenodd" clip-rule="evenodd" d="M15.8593 131.74C15.8695 131.585 15.8461 131.43 15.7908 131.285C15.7355 131.14 15.6496 131.008 15.539 130.9C15.3149 130.67 15.0585 130.475 14.778 130.319L13.7768 129.779C13.4192 129.59 13.0834 129.362 12.7756 129.099C12.4592 128.795 12.2012 128.436 12.0147 128.039C11.7982 127.547 11.689 127.015 11.6943 126.478C11.715 126.002 11.8236 125.534 12.0147 125.098C12.1372 124.724 12.3425 124.382 12.6155 124.098C12.8808 123.821 13.2112 123.614 13.5766 123.497C13.9762 123.359 14.3952 123.285 14.8181 123.277C15.3163 123.278 15.813 123.332 16.2999 123.437C16.7071 123.525 17.0942 123.687 17.4412 123.918L16.9006 125.778C16.6499 125.59 16.3639 125.454 16.0596 125.378C15.6642 125.255 15.2521 125.194 14.8381 125.198C14.6646 125.184 14.4902 125.206 14.3251 125.261C14.16 125.316 14.0076 125.403 13.877 125.518C13.7718 125.627 13.6893 125.755 13.6343 125.896C13.5793 126.037 13.5529 126.187 13.5566 126.338C13.5566 126.636 13.6713 126.923 13.877 127.138C14.1065 127.362 14.3619 127.556 14.6379 127.719L15.6391 128.279C15.9967 128.468 16.3325 128.696 16.6403 128.959C16.9528 129.251 17.2105 129.597 17.4012 129.979C17.614 130.451 17.7233 130.963 17.7216 131.48C17.7304 132.002 17.656 132.522 17.5013 133.02C17.3641 133.435 17.1309 133.812 16.8205 134.121C16.5396 134.421 16.1888 134.648 15.7993 134.781C15.3671 134.927 14.9139 135.001 14.4577 135.001C13.8823 135.017 13.3079 134.943 12.7556 134.781C12.3687 134.689 11.9975 134.541 11.6543 134.341L12.215 132.46L12.5754 132.66L13.096 132.86L13.6967 133.02C13.9098 133.041 14.1244 133.041 14.3375 133.02C14.7656 133.052 15.1911 132.931 15.539 132.68C15.6564 132.555 15.7458 132.407 15.8011 132.245C15.8563 132.082 15.8762 131.91 15.8593 131.74Z" fill="#007F33"/>
<path fill-rule="evenodd" clip-rule="evenodd" d="M18.7227 123.478L24.0691 123.418L24.0891 125.399L20.5048 125.419L20.5248 128.039L23.7887 128.019L23.8088 129.98L20.5448 130L20.5649 132.761L24.2092 132.721L24.2293 134.681L18.8228 134.721L18.7227 123.478Z" fill="#007F33"/>
<path fill-rule="evenodd" clip-rule="evenodd" d="M25.4502 123.516L26.0709 123.396H26.7518H27.4326H28.0333C28.4505 123.386 28.8674 123.426 29.2748 123.516C29.6728 123.604 30.0479 123.775 30.3761 124.016C30.7172 124.261 30.9868 124.593 31.157 124.977C31.3739 125.46 31.4767 125.987 31.4574 126.517C31.4987 127.3 31.333 128.08 30.9768 128.778C30.6723 129.333 30.1838 129.764 29.5952 129.998L30.2359 130.498L32.3385 134.78H30.3361L28.3337 130.378L27.4125 130.178V134.8H25.6304V123.636L25.4502 123.516ZM28.1534 125.197H27.6328C27.5007 125.169 27.3644 125.169 27.2323 125.197V128.458H28.0333C28.4672 128.479 28.8921 128.328 29.2147 128.038C29.5267 127.64 29.6769 127.14 29.6352 126.637C29.6543 126.229 29.5184 125.829 29.2548 125.517C29.1071 125.384 28.9313 125.287 28.7407 125.231C28.55 125.176 28.3493 125.164 28.1534 125.197Z" fill="#007F33"/>
<path fill-rule="evenodd" clip-rule="evenodd" d="M36.2235 129.919L36.4638 131.84H36.5239L36.7642 129.899L38.4462 123.297L40.2884 123.277L37.0445 134.661H35.783L32.2988 123.357L34.3613 123.337L36.2235 129.919Z" fill="#007F33"/>
<path fill-rule="evenodd" clip-rule="evenodd" d="M41.1289 123.278L42.891 123.258L42.9911 134.521L41.229 134.541L41.1289 123.278Z" fill="#007F33"/>
<path fill-rule="evenodd" clip-rule="evenodd" d="M50.8206 134.038C50.5221 134.299 50.1649 134.485 49.7794 134.578C49.3491 134.698 48.9045 134.759 48.4578 134.758C47.9358 134.758 47.4188 134.656 46.9359 134.458C46.4281 134.234 45.9817 133.891 45.6344 133.458C45.2203 132.914 44.9144 132.296 44.7333 131.637C44.4912 130.758 44.3766 129.849 44.3929 128.937C44.3412 127.957 44.4563 126.977 44.7333 126.036C44.9249 125.377 45.2373 124.76 45.6544 124.215C46.0105 123.797 46.455 123.462 46.956 123.235C47.4136 123.043 47.9019 122.935 48.3977 122.915C48.8413 122.908 49.2843 122.948 49.7193 123.035C50.0234 123.101 50.319 123.202 50.6003 123.335L50.2599 125.196C50.0377 125.086 49.8021 125.005 49.5591 124.956C49.233 124.921 48.904 124.921 48.5779 124.956C48.2304 124.956 47.8889 125.046 47.587 125.218C47.285 125.39 47.0331 125.637 46.8558 125.936C46.3746 126.838 46.1594 127.857 46.2351 128.877C46.23 129.415 46.2905 129.953 46.4153 130.477C46.5015 130.909 46.6643 131.323 46.8959 131.698C47.087 132.019 47.3555 132.287 47.6768 132.478C48.0113 132.668 48.3937 132.759 48.7782 132.738C49.1108 132.748 49.4427 132.7 49.7593 132.598C50.0048 132.507 50.2345 132.379 50.4402 132.218L50.8206 134.038Z" fill="#007F33"/>
<path fill-rule="evenodd" clip-rule="evenodd" d="M51.8223 123.177L57.1687 123.137V125.097L53.6044 125.137L53.6244 127.738L56.8884 127.718V129.679L53.6445 129.699L53.6645 132.459L57.3089 132.419L57.3289 134.38L51.9224 134.44L51.8223 123.177Z" fill="#007F33"/>
<path fill-rule="evenodd" clip-rule="evenodd" d="M66.6999 123.035H68.3618V130.297C68.3711 130.931 68.2971 131.563 68.1416 132.178C68.0144 132.655 67.7969 133.103 67.5008 133.498C67.2427 133.838 66.8964 134.101 66.4996 134.258C66.0846 134.421 65.6439 134.51 65.198 134.519C62.9153 134.519 61.7739 133.238 61.7539 130.637V123.095H63.516V130.197C63.4798 130.57 63.4798 130.945 63.516 131.318C63.6379 131.602 63.831 131.85 64.0767 132.038C64.2118 132.215 64.3915 132.353 64.5973 132.438C64.8347 132.491 65.0808 132.491 65.3182 132.438C65.5473 132.459 65.7779 132.418 65.9858 132.32C66.1937 132.221 66.3712 132.068 66.4996 131.878C66.7727 131.312 66.8902 130.684 66.84 130.057L66.6999 123.035Z" fill="#007F33"/>
<path fill-rule="evenodd" clip-rule="evenodd" d="M72.166 128.38L71.4452 126.619H71.3651L71.6054 128.4L71.6454 134.261L69.9834 134.281L69.8633 122.938L71.1648 122.918L74.629 128.9L75.3298 130.62H75.3899L75.1696 128.9L75.1096 122.978L76.7916 122.958L76.8917 134.301L75.6102 134.321L72.166 128.38Z" fill="#007F33"/>
<path d="M80.2747 122.932L78.5127 122.949L78.6248 134.212L80.3869 134.194L80.2747 122.932Z" fill="#007F33"/>
<path fill-rule="evenodd" clip-rule="evenodd" d="M88.4264 124.816L85.8032 124.836L85.8833 134.139H84.1212L84.0411 124.856L81.398 124.876L81.3779 122.915L88.4064 122.855L88.4264 124.816Z" fill="#007F33"/>
</svg>
