<svg width="170" height="56" viewBox="0 0 170 56" fill="none" xmlns="http://www.w3.org/2000/svg">
<path d="M2.56992 30.1641H0V39.9329H2.56992V30.1641Z" fill="#1D1D1B"/>
<path d="M29.5543 30.1641H26.9844V39.9329H29.5543V30.1641Z" fill="#1D1D1B"/>
<path d="M4.15527 30.1641V39.9186H6.72519V36.0054L10.6515 39.9186H13.921L4.15527 30.1641Z" fill="#1D1D1B"/>
<path d="M13.9196 34.2344V30.1641H9.85059L13.9196 34.2344Z" fill="#1D1D1B"/>
<path d="M25.2989 39.9186V30.1641H22.729V34.0773L18.8027 30.1641H15.5332L25.2989 39.9186Z" fill="#1D1D1B"/>
<path d="M15.5332 35.8594V39.9154H19.6165L15.5332 35.8594Z" fill="#1D1D1B"/>
<path d="M35.9941 32.0639C36.7831 32.0677 37.5384 32.3838 38.0949 32.9432C38.6514 33.5026 38.9638 34.2596 38.9638 35.0488C38.9676 35.4307 38.8948 35.8095 38.7497 36.1628L40.463 37.8766C40.9681 37.0759 41.2496 36.1543 41.278 35.2079C41.3064 34.2614 41.0808 33.3247 40.6245 32.495C40.1683 31.6654 39.4982 30.9732 38.6838 30.4905C37.8695 30.0077 36.9407 29.7521 35.9941 29.7502C34.9818 29.7406 33.9888 30.0287 33.1387 30.5786L34.8377 32.2781C35.1962 32.1344 35.5793 32.0616 35.9656 32.0639" fill="#62B55A"/>
<path d="M35.993 38.0159C35.2016 38.0159 34.4426 37.7014 33.883 37.1416C33.3234 36.5818 33.009 35.8226 33.009 35.0309C33.0116 34.6483 33.0892 34.2698 33.2374 33.917L31.5242 32.2031C30.885 33.2189 30.6095 34.4216 30.7427 35.6143C30.876 36.8071 31.4102 37.9193 32.2577 38.7688C33.1053 39.6183 34.2161 40.1548 35.4082 40.2905C36.6004 40.4261 37.8032 40.1529 38.8199 39.5155L37.1066 37.8016C36.7534 37.9468 36.3748 38.0197 35.993 38.0159Z" fill="#F07E31"/>
<path d="M109.25 14.9968C108.951 15.3459 108.611 15.6576 108.237 15.9251C107.268 16.5619 106.126 16.8814 104.967 16.8392C104.003 16.8668 103.053 16.6109 102.233 16.1031C101.413 15.5954 100.761 14.8581 100.356 13.9828C99.8612 12.9547 99.6166 11.8243 99.6418 10.6837C99.6125 9.5243 99.8571 8.37438 100.356 7.3274C100.765 6.45547 101.419 5.72129 102.237 5.21419C103.056 4.70708 104.005 4.44889 104.967 4.47102C106.125 4.43714 107.265 4.75591 108.237 5.38506C108.601 5.64807 108.932 5.95507 109.222 6.29911L111.906 3.61411C111.559 3.25519 111.187 2.92112 110.792 2.61437C109.1 1.41183 107.056 0.804136 104.982 0.886259C103.304 0.855355 101.649 1.2851 100.199 2.12879C98.7916 2.98575 97.6614 4.23039 96.9434 5.71355C96.1519 7.2794 95.7549 9.015 95.787 10.7693C95.7695 12.4856 96.1662 14.1807 96.9434 15.7109C97.677 17.1572 98.8058 18.3656 100.199 19.1957C101.648 20.0437 103.302 20.4783 104.982 20.4525C107.058 20.5305 109.101 19.9177 110.792 18.7101C111.202 18.4005 111.58 18.0513 111.92 17.6675L109.25 14.9968Z" fill="#1D1D1B"/>
<path d="M69.1734 10.34C69.5309 10.1064 69.8531 9.82266 70.1299 9.49736C70.8855 8.57923 71.2768 7.41505 71.2293 6.2268C71.2595 5.50864 71.1276 4.79289 70.8434 4.13272C70.5591 3.47256 70.1298 2.88494 69.5874 2.41353C68.284 1.4345 66.6739 0.953336 65.0472 1.05675H57.8086V20.3088H65.1471C66.8839 20.4244 68.6007 19.8841 69.9586 18.7949C70.5246 18.2917 70.9729 17.67 71.2715 16.9739C71.5701 16.2778 71.7116 15.5244 71.6862 14.7674C71.6903 13.5397 71.2489 12.3522 70.444 11.4254C70.0798 10.9954 69.6512 10.6244 69.1734 10.3257V10.34ZM61.5921 8.89752V4.44156H64.576C65.3547 4.37582 66.1319 4.58282 66.7748 5.02712C66.9857 5.23118 67.1498 5.47861 67.2558 5.75231C67.3618 6.02602 67.4071 6.31947 67.3887 6.61242C67.4117 6.91346 67.3673 7.21586 67.2586 7.49754C67.1499 7.77922 66.9797 8.03306 66.7605 8.24056C66.1572 8.67839 65.4196 8.89067 64.676 8.8404L61.5921 8.89752ZM64.676 12.0395C65.5391 11.9674 66.3997 12.2054 67.1031 12.7108C67.3541 12.9264 67.5517 13.1972 67.6805 13.5019C67.8094 13.8067 67.8658 14.1372 67.8456 14.4675C67.8659 14.7998 67.8095 15.1324 67.6808 15.4395C67.552 15.7466 67.3544 16.02 67.1031 16.2384C66.4269 16.7205 65.6043 16.9527 64.7759 16.8954H61.5921V12.0395H64.676Z" fill="#1D1D1B"/>
<path d="M82.4511 1.05469L75.1982 20.3067H79.2673L80.695 16.1935H87.4482L88.8759 20.3067H92.945L85.8349 1.05469H82.4511ZM81.9514 12.8516L84.1359 6.83886L86.306 12.8516H81.9514Z" fill="#1D1D1B"/>
<path d="M128.354 8.73836H120.844V1.05469H117.061V20.2924H120.844V12.0946H128.354V20.2924H132.18V1.05469H128.354V8.73836Z" fill="#1D1D1B"/>
<path d="M138.562 20.2924H149.841V16.9505H142.345V12.2374H149.098V8.98115H142.345V4.41094H149.841V1.05469H138.562V20.2924Z" fill="#1D1D1B"/>
<path d="M164.989 12.725C166.081 12.47 167.074 11.8987 167.844 11.0826C168.813 9.98627 169.324 8.56005 169.272 7.09795C169.297 6.28172 169.149 5.4694 168.839 4.71394C168.529 3.95848 168.064 3.27683 167.473 2.7134C166.07 1.52121 164.255 0.926469 162.419 1.0567H155.837V20.2944H159.62V13.0535H160.948L165.617 20.2944H170L164.989 12.725ZM165.374 7.21221C165.374 8.45474 165.017 9.89721 162.219 9.89721H159.62V4.54149H162.219C165.074 4.54149 165.374 5.96968 165.374 7.21221Z" fill="#1D1D1B"/>
<path d="M29.3832 4.41094V1.05469H18.0898V20.2924H29.3832V16.9505H21.8733V12.2374H28.6265V8.98115H21.8733V4.41094H29.3832Z" fill="#1D1D1B"/>
<path d="M7.63837 15.0263C7.66333 15.5396 7.50661 16.0453 7.19578 16.4545C7.0132 16.6427 6.78857 16.7849 6.54036 16.8693C6.29216 16.9537 6.02746 16.978 5.76804 16.9401C5.50006 16.9559 5.23202 16.9101 4.98451 16.8061C4.73701 16.7021 4.51663 16.5427 4.34031 16.3402C4.06692 15.952 3.8996 15.4991 3.85488 15.0263L3.76922 14.3693H0L0.0713867 15.1834C0.139714 16.5513 0.67953 17.8534 1.59906 18.8681C2.15951 19.4258 2.82958 19.861 3.56686 20.1461C4.30414 20.4313 5.09258 20.5603 5.88226 20.5248C6.61535 20.5751 7.35095 20.4743 8.0435 20.2286C8.73605 19.983 9.37081 19.5977 9.90847 19.0967C10.3996 18.5581 10.7787 17.9271 11.0238 17.2406C11.2689 16.5541 11.3751 15.8257 11.3362 15.0977V1.05859H7.63837V15.0263Z" fill="#1D1D1B"/>
<path d="M35.0088 5.37109V20.2957H38.7923V9.1558L35.0088 5.37109Z" fill="#1D1D1B"/>
<path d="M47.2002 1.05469V12.2089L50.9837 15.9936V1.05469H47.2002Z" fill="#1D1D1B"/>
<path d="M35.0088 0V5.37L50.9851 21.3658V15.9957L35.0088 0Z" fill="#62B55A"/>
<path d="M5.91082 51.4179C5.94892 51.9196 5.88229 52.4237 5.71515 52.8983C5.54801 53.3728 5.28402 53.8074 4.93996 54.1743C4.65628 54.4375 4.3135 54.6285 3.94054 54.7313C3.53184 54.8457 3.10841 54.8986 2.68414 54.8884H0V47.7475H2.59847C3.05019 47.7352 3.50152 47.7832 3.94054 47.8903C4.35787 48.0167 4.73643 48.2467 5.04098 48.5588C5.34554 48.871 5.56618 49.2551 5.68238 49.6755C5.85709 50.2391 5.93435 50.8284 5.91082 51.4179ZM4.48308 51.4179C4.5599 50.7247 4.36547 50.0286 3.94054 49.4756C3.754 49.3107 3.52759 49.1975 3.28379 49.1471C2.89427 49.1133 2.50256 49.1133 2.11305 49.1471H1.47057V53.8316H2.52709C2.81657 53.8625 3.10852 53.8625 3.39801 53.8316C3.62982 53.7734 3.84082 53.6517 4.00728 53.4801C4.17375 53.3085 4.28907 53.0939 4.34031 52.8604C4.46479 52.3465 4.49861 51.8149 4.44025 51.2894L4.48308 51.4179Z" fill="#1D1D1B"/>
<path d="M8.4534 49.0024H7.11133V47.7456H8.4534V49.0024ZM8.4534 54.8152H7.11133V49.7022H8.4534V54.8152Z" fill="#1D1D1B"/>
<path d="M14.1628 53.2146C14.1741 53.4864 14.1076 53.7559 13.971 53.9912C13.8344 54.2265 13.6335 54.4179 13.3918 54.5428C12.9205 54.8173 12.3805 54.9512 11.8356 54.9284C10.4079 54.9284 9.65115 54.4 9.37988 53.3431L10.8076 53.1432C10.8531 53.3922 10.9926 53.6142 11.1973 53.7631C11.402 53.912 11.6561 53.9764 11.907 53.9429C12.5495 53.9429 12.8778 53.7573 12.8778 53.4002C12.8778 53.0432 12.6922 53.0432 12.321 52.9575C11.6015 52.8454 10.9033 52.6239 10.2508 52.3005C10.0553 52.1793 9.89537 52.0084 9.78751 51.8051C9.67965 51.6019 9.62766 51.3736 9.63688 51.1437C9.63692 50.8958 9.70144 50.6523 9.8241 50.4369C9.94676 50.2216 10.1233 50.0419 10.3365 49.9154C10.7757 49.6836 11.2678 49.5704 11.7642 49.587C12.2524 49.5586 12.7406 49.6417 13.1919 49.8298C13.4022 49.9429 13.5861 50.0994 13.7313 50.289C13.8765 50.4786 13.9798 50.6969 14.0343 50.9295L12.7636 51.1723C12.6494 50.7581 12.3353 50.5581 11.807 50.5581C11.2788 50.5581 10.879 50.7009 10.879 50.9723C10.8783 51.022 10.8913 51.0709 10.9164 51.1137C10.9416 51.1565 10.978 51.1916 11.0218 51.2151C11.4305 51.4203 11.8689 51.5601 12.321 51.6293C12.835 51.7143 13.323 51.9145 13.7487 52.2148C13.8912 52.3374 14.0029 52.4917 14.0749 52.6654C14.1468 52.839 14.1769 53.0271 14.1628 53.2146Z" fill="#1D1D1B"/>
<path d="M17.79 54.7312C17.4492 54.8659 17.0857 54.9338 16.7192 54.9311C16.516 54.9511 16.311 54.9212 16.1219 54.8441C15.9328 54.7669 15.7654 54.6448 15.6341 54.4884C15.5314 54.3294 15.4678 54.1483 15.4485 53.96C15.4189 53.6417 15.4189 53.3213 15.4485 53.0031V50.7751H14.8203V49.7039H15.4485V48.6899L16.7906 47.8901V49.7039H17.7186V50.7751H16.7906V53.3173C16.7862 53.3935 16.7979 53.4697 16.8249 53.5411C16.852 53.6125 16.8938 53.6773 16.9476 53.7314C17.0114 53.7845 17.0935 53.8101 17.1761 53.8029C17.3626 53.7889 17.5457 53.7456 17.7186 53.6743L17.79 54.7312Z" fill="#1D1D1B"/>
<path d="M21.8875 49.8328L21.4735 51.0182C21.2877 50.8904 21.0704 50.8163 20.8453 50.8039C20.4455 50.8039 20.1743 51.0324 20.0458 51.518C19.9484 52.0838 19.9101 52.6582 19.9315 53.2319V54.8172H18.5752V49.7042H19.8744V50.4326C20.0062 50.214 20.1644 50.0125 20.3456 49.8328C20.5405 49.6677 20.7899 49.5812 21.0452 49.59C21.3427 49.5937 21.6336 49.6776 21.8875 49.8328Z" fill="#1D1D1B"/>
<path d="M23.829 49.0024H22.4727V47.7456H23.829V49.0024ZM23.829 54.8152H22.4727V49.7022H23.829V54.8152Z" fill="#1D1D1B"/>
<path d="M30.1254 52.1988C30.1468 52.8535 29.9728 53.4999 29.6257 54.0554C29.4561 54.3321 29.2159 54.5586 28.9299 54.7117C28.6439 54.8648 28.3222 54.939 27.998 54.9266C27.6794 54.9297 27.3652 54.8513 27.0854 54.6988C26.8055 54.5463 26.5692 54.3249 26.399 54.0554V54.8123H25.1426V47.6714H26.4846V50.2136C26.6797 49.9859 26.9231 49.8046 27.1971 49.6831C27.4711 49.5615 27.7688 49.5027 28.0684 49.5109C28.3681 49.5191 28.6621 49.5941 28.929 49.7305C29.196 49.8669 29.4291 50.0612 29.6114 50.2993C29.9884 50.858 30.1692 51.5261 30.1254 52.1988ZM28.6976 52.2702C28.6976 51.1705 28.3264 50.6135 27.5697 50.6135C27.3921 50.607 27.2161 50.6487 27.0602 50.7342C26.9044 50.8197 26.7746 50.9458 26.6845 51.099C26.5061 51.4164 26.4219 51.7781 26.4418 52.1416C26.4167 52.5467 26.5005 52.9511 26.6845 53.3127C26.7788 53.476 26.9139 53.612 27.0766 53.7071C27.2394 53.8023 27.4241 53.8534 27.6126 53.8555C27.7938 53.8638 27.9734 53.818 28.1285 53.7239C28.2836 53.6298 28.4071 53.4916 28.4835 53.327C28.6504 52.9996 28.7384 52.6377 28.7405 52.2702H28.6976Z" fill="#1D1D1B"/>
<path d="M35.8362 54.8156H34.5798V54.0443C34.3996 54.3252 34.1496 54.5544 33.8543 54.7096C33.559 54.8648 33.2285 54.9407 32.895 54.9298C32.5811 54.9641 32.2644 54.8983 31.9901 54.7418C31.7158 54.5854 31.4978 54.3463 31.3674 54.0586C31.2379 53.6971 31.1797 53.314 31.196 52.9304V49.7026H32.5381V52.0449C32.5381 52.6161 32.5381 52.9161 32.5381 52.9589C32.5333 53.1092 32.5615 53.2587 32.6207 53.3968C32.6799 53.535 32.7687 53.6586 32.8808 53.7587C33.0297 53.8545 33.2035 53.9041 33.3805 53.9015C33.5938 53.8969 33.8015 53.8326 33.9801 53.7159C34.1683 53.6084 34.3105 53.4356 34.3799 53.2303C34.4701 52.7599 34.5036 52.2804 34.4798 51.8021V49.7026H35.8219L35.8362 54.8156Z" fill="#1D1D1B"/>
<path d="M39.6917 54.7312C39.3509 54.8659 38.9874 54.9338 38.6209 54.9311C38.4178 54.9499 38.2132 54.9194 38.0243 54.8424C37.8355 54.7653 37.6679 54.6439 37.5359 54.4884C37.4332 54.3294 37.3696 54.1483 37.3503 53.96C37.3183 53.6418 37.3183 53.3212 37.3503 53.0031V50.7751H36.7363V49.7039H37.3503V48.6899L38.7066 47.8901V49.7039H39.6346V50.7751H38.7066V53.3173C38.7022 53.3935 38.7139 53.4697 38.741 53.5411C38.768 53.6125 38.8098 53.6773 38.8636 53.7314C38.9274 53.7845 39.0095 53.8101 39.0921 53.8029C39.2786 53.7889 39.4617 53.7456 39.6346 53.6743L39.6917 54.7312Z" fill="#1D1D1B"/>
<path d="M45.5728 52.2459C45.5846 52.5985 45.5249 52.9499 45.3973 53.2788C45.2697 53.6077 45.0769 53.9073 44.8304 54.1597C44.588 54.4134 44.2949 54.6132 43.9702 54.7461C43.6455 54.8789 43.2965 54.9419 42.9458 54.9309C42.4803 54.9303 42.0212 54.8228 41.6037 54.6167C41.1929 54.4071 40.8546 54.0786 40.6329 53.6741C40.4059 53.2329 40.293 52.7419 40.3045 52.2459C40.298 51.7868 40.4112 51.334 40.6329 50.932C40.846 50.5235 41.1734 50.1861 41.5752 49.9608C42.0158 49.7339 42.5078 49.6256 43.0029 49.6466C43.3535 49.6325 43.7033 49.6913 44.0301 49.8191C44.3569 49.9469 44.6537 50.141 44.9018 50.3893C45.1304 50.6392 45.3074 50.9319 45.4226 51.2506C45.5378 51.5692 45.5888 51.9075 45.5728 52.2459ZM44.1451 52.2459C44.1588 51.8664 44.054 51.492 43.8453 51.1748C43.7353 51.0243 43.5913 50.9018 43.4251 50.8174C43.2589 50.733 43.0751 50.689 42.8887 50.689C42.7023 50.689 42.5185 50.733 42.3523 50.8174C42.1861 50.9018 42.0421 51.0243 41.9321 51.1748C41.7457 51.5035 41.6476 51.8751 41.6476 52.2531C41.6476 52.631 41.7457 53.0026 41.9321 53.3313C42.0351 53.4899 42.1773 53.6192 42.3449 53.7068C42.5124 53.7943 42.6997 53.8372 42.8887 53.8312C43.0779 53.8386 43.2657 53.7964 43.4335 53.7087C43.6013 53.621 43.7433 53.4909 43.8453 53.3313C44.056 53.0097 44.1609 52.6302 44.1451 52.2459Z" fill="#1D1D1B"/>
<path d="M49.8574 49.8301L49.4433 51.0155C49.2535 50.8852 49.0308 50.811 48.8008 50.8012C48.4153 50.8012 48.1441 51.0297 48.0156 51.5153C47.9182 52.0811 47.88 52.6555 47.9014 53.2292V54.8144H46.4736V49.7015H47.73V50.4299C47.8618 50.2113 48.02 50.0098 48.2012 49.8301C48.3961 49.665 48.6455 49.5784 48.9008 49.5873C49.2366 49.5717 49.5695 49.6562 49.8574 49.8301Z" fill="#1D1D1B"/>
<path d="M58.5651 54.8123H57.1374L54.2819 50.1993V54.8123H52.9541V47.6714H54.3818L57.2373 52.3844V47.6714H58.5651V54.8123Z" fill="#1D1D1B"/>
<path d="M64.4623 52.644H61.0786C61.0723 52.9628 61.1728 53.2745 61.3641 53.5295C61.4585 53.6548 61.5819 53.7552 61.7236 53.8224C61.8653 53.8896 62.0212 53.9214 62.1779 53.9151C62.3862 53.9179 62.5885 53.846 62.7483 53.7124C62.9081 53.5787 63.0147 53.3923 63.0488 53.1867L64.3909 53.4153C64.2465 53.883 63.9474 54.2877 63.5426 54.5628C63.1378 54.8379 62.6515 54.9671 62.1636 54.9291C61.7888 54.9585 61.4125 54.8943 61.0686 54.7422C60.7247 54.5901 60.424 54.355 60.1934 54.0579C59.8439 53.5097 59.6582 52.873 59.6582 52.2227C59.6582 51.5725 59.8439 50.9357 60.1934 50.3875C60.4061 50.1258 60.6768 49.9172 60.9841 49.7784C61.2914 49.6396 61.6268 49.5743 61.9638 49.5877C62.3347 49.5594 62.7066 49.6289 63.0423 49.7893C63.378 49.9497 63.6658 50.1953 63.8769 50.5017C64.292 51.1367 64.4968 51.8862 64.4623 52.644ZM63.1202 51.8157C63.1267 51.5211 63.0419 51.2318 62.8775 50.9873C62.7867 50.8715 62.6707 50.7779 62.5384 50.7135C62.4061 50.6491 62.2608 50.6156 62.1137 50.6156C61.9665 50.6156 61.8213 50.6491 61.689 50.7135C61.5566 50.7779 61.4407 50.8715 61.3498 50.9873C61.1697 51.2248 61.0788 51.518 61.0928 51.8157H63.1202Z" fill="#1D1D1B"/>
<path d="M72.4718 49.7026L70.8299 54.8156H69.5306L68.6454 51.5164L67.7745 54.8156H66.461L64.8477 49.7026H66.1612L67.1178 53.0446L68.0029 49.7026H69.3022L70.1588 53.0446L71.1297 49.7026H72.4718Z" fill="#1D1D1B"/>
<path d="M81.466 51.4161C81.466 52.1016 81.466 52.5586 81.466 52.8443C81.4321 53.3107 81.2635 53.7573 80.9806 54.1296C80.6939 54.4136 80.3484 54.6311 79.9685 54.7668C79.5886 54.9026 79.1835 54.9532 78.7819 54.9151C78.351 54.9628 77.915 54.9116 77.5068 54.7656C77.0987 54.6196 76.7291 54.3826 76.4261 54.0725C76.238 53.8478 76.1015 53.5845 76.0264 53.3013C75.9196 52.7076 75.8718 52.1048 75.8836 51.5018V47.7456H77.3113V51.5732C77.2767 51.9675 77.2767 52.3642 77.3113 52.7586C77.4398 53.387 77.8967 53.7154 78.7391 53.7154C79.5814 53.7154 79.9241 53.4298 80.024 52.8585C80.0796 52.4612 80.1035 52.06 80.0954 51.6588V47.7456H81.5231L81.466 51.4161Z" fill="#1D1D1B"/>
<path d="M87.6344 54.8157H86.278V52.2021C86.2917 51.9405 86.2917 51.6783 86.278 51.4166C86.271 51.287 86.2369 51.1603 86.1779 51.0446C86.1188 50.929 86.0362 50.8271 85.9354 50.7454C85.7948 50.6561 85.6306 50.6113 85.4642 50.6168C85.2452 50.6126 85.0303 50.6776 84.8503 50.8025C84.6602 50.9209 84.5185 51.1032 84.4505 51.3166C84.3635 51.7054 84.3299 52.1042 84.3506 52.502V54.8157H82.9229V49.7028H84.1793V50.4454C84.3711 50.1782 84.6242 49.961 84.9173 49.8119C85.2105 49.6627 85.5351 49.5862 85.864 49.5885C86.1307 49.5574 86.4009 49.5933 86.6503 49.6931C86.8996 49.7928 87.1201 49.9532 87.2917 50.1598C87.5489 50.5898 87.6684 51.0881 87.6344 51.588V54.8157Z" fill="#1D1D1B"/>
<path d="M90.3613 49.0024H88.9336V47.7456H90.3613V49.0024ZM90.3613 54.8152H88.9336V49.7022H90.3613V54.8152Z" fill="#1D1D1B"/>
<path d="M94.1152 54.7312C93.7744 54.8659 93.4108 54.9338 93.0444 54.9311C92.8413 54.9499 92.6367 54.9194 92.4478 54.8424C92.2589 54.7653 92.0914 54.6439 91.9593 54.4884C91.8566 54.3294 91.793 54.1483 91.7737 53.96C91.7441 53.6417 91.7441 53.3213 91.7737 53.0031V50.7751H91.1455V49.7039H91.7737V48.6899L93.1158 47.8901V49.7039H94.1152V50.7751H93.1872V53.3173C93.1828 53.3935 93.1945 53.4697 93.2215 53.5411C93.2486 53.6125 93.2904 53.6773 93.3442 53.7314C93.408 53.7845 93.4901 53.8101 93.5727 53.8029C93.7592 53.7889 93.9423 53.7456 94.1152 53.6743V54.7312Z" fill="#1D1D1B"/>
<path d="M99.3278 53.2174C99.3405 53.4877 99.2761 53.7561 99.1421 53.9913C99.0081 54.2264 98.8101 54.4187 98.5711 54.5456C98.0925 54.8149 97.5495 54.9483 97.0006 54.9312C95.5729 54.9312 94.8162 54.4028 94.5449 53.3459L95.9727 53.146C96.0148 53.3939 96.1515 53.6157 96.3538 53.7649C96.5562 53.9141 96.8085 53.9789 97.0577 53.9458C97.7002 53.9458 98.0286 53.7601 98.0286 53.403C98.0286 53.046 97.843 53.046 97.486 52.9603C96.7621 52.8475 96.0594 52.626 95.4016 52.3033C95.2211 52.1676 95.0755 51.9909 94.9765 51.7879C94.8776 51.5849 94.8282 51.3614 94.8323 51.1356C94.8365 50.9097 94.8942 50.6882 95.0006 50.489C95.107 50.2898 95.2591 50.1187 95.4444 49.9897C95.8814 49.7519 96.3752 49.6384 96.8721 49.6612C97.3603 49.6329 97.8485 49.7159 98.2999 49.904C98.5106 50.0184 98.6955 50.1752 98.8429 50.3644C98.9903 50.5536 99.0971 50.7713 99.1565 51.0037L97.8715 51.2465C97.7573 50.8323 97.4432 50.6324 96.915 50.6324C96.3867 50.6324 96.0012 50.7752 96.0012 51.0465C96.0005 51.0945 96.0119 51.142 96.0344 51.1844C96.0568 51.2268 96.0896 51.2629 96.1297 51.2893C96.5396 51.4918 96.9775 51.6314 97.4289 51.7035C97.9415 51.7935 98.4285 51.9933 98.8567 52.2891C98.9984 52.3998 99.114 52.5404 99.1954 52.7008C99.2769 52.8612 99.3221 53.0376 99.3278 53.2174Z" fill="#1D1D1B"/>
<path d="M109.421 53.9468L108.593 55.0036C108.174 54.7913 107.789 54.5169 107.451 54.1895C106.883 54.6858 106.149 54.9509 105.395 54.9322C105.03 54.9614 104.663 54.9101 104.32 54.7817C103.977 54.6534 103.667 54.4512 103.411 54.1895C103.076 53.8346 102.891 53.3636 102.897 52.8756C102.919 52.3959 103.085 51.934 103.372 51.5495C103.66 51.165 104.056 50.8757 104.51 50.719C104.097 50.2984 103.84 49.7491 103.782 49.1623C103.771 48.9286 103.824 48.6965 103.935 48.4903C104.045 48.2842 104.21 48.1118 104.41 47.9912C104.811 47.74 105.279 47.6156 105.752 47.6341C106.231 47.6154 106.703 47.7561 107.094 48.034C107.287 48.171 107.442 48.3535 107.547 48.5654C107.652 48.7773 107.702 49.0118 107.694 49.248C107.692 49.6227 107.543 49.9817 107.28 50.2477C107.021 50.5139 106.728 50.7444 106.409 50.9333L107.394 52.2186C107.527 51.9658 107.628 51.6971 107.694 51.4189L108.907 51.7045C108.822 52.033 108.736 52.29 108.679 52.4614C108.587 52.7058 108.462 52.9365 108.308 53.147C108.634 53.4716 109.01 53.7417 109.421 53.9468ZM106.566 53.2755L105.138 51.576C104.878 51.6726 104.652 51.8429 104.487 52.0661C104.322 52.2893 104.226 52.5557 104.21 52.8328C104.205 52.9686 104.229 53.1041 104.28 53.2298C104.332 53.3555 104.41 53.4685 104.51 53.5611C104.72 53.74 104.991 53.8319 105.267 53.8182C105.758 53.8127 106.228 53.6184 106.58 53.2755H106.566ZM106.566 49.2194C106.571 49.128 106.552 49.0368 106.512 48.9544C106.472 48.872 106.412 48.801 106.337 48.7481C106.196 48.6356 106.018 48.5796 105.838 48.591C105.676 48.5875 105.517 48.6323 105.381 48.7196C105.31 48.7588 105.251 48.8169 105.211 48.8875C105.17 48.958 105.15 49.0383 105.152 49.1195C105.181 49.355 105.292 49.5726 105.467 49.7336L105.795 50.1192L106.152 49.8336C106.252 49.7634 106.336 49.672 106.398 49.566C106.46 49.4599 106.498 49.3416 106.509 49.2194H106.566Z" fill="#1D1D1B"/>
<path d="M118.388 52.7584C118.393 53.1697 118.274 53.5729 118.046 53.9152C117.811 54.2534 117.484 54.5163 117.103 54.6722C116.611 54.8575 116.087 54.9448 115.562 54.9293C115.213 54.973 114.859 54.944 114.522 54.8441C114.186 54.7441 113.873 54.5754 113.605 54.3486C113.337 54.1218 113.118 53.8418 112.963 53.5263C112.809 53.2108 112.721 52.8667 112.706 52.5156L114.134 52.3871C114.145 52.5773 114.193 52.7635 114.277 52.9346C114.361 53.1057 114.478 53.2583 114.622 53.3834C114.766 53.5085 114.933 53.6036 115.114 53.6631C115.295 53.7225 115.486 53.7451 115.676 53.7296C115.994 53.7403 116.309 53.6664 116.589 53.5153C116.732 53.4473 116.852 53.3398 116.936 53.2057C117.019 53.0716 117.062 52.9164 117.061 52.7584C117.061 52.4299 116.846 52.1871 116.404 52.03L115.262 51.7158C114.676 51.6146 114.123 51.3747 113.648 51.016C113.442 50.8404 113.278 50.6212 113.166 50.3742C113.055 50.1272 113.001 49.8586 113.006 49.5878C112.977 49.228 113.061 48.8682 113.249 48.5595C113.467 48.2482 113.769 48.0054 114.12 47.8597C114.574 47.6839 115.06 47.6014 115.547 47.6169C116.204 47.5841 116.855 47.7482 117.418 48.0882C117.683 48.2777 117.898 48.5288 118.045 48.8199C118.191 49.1109 118.265 49.4333 118.26 49.7592H116.832C116.796 49.451 116.649 49.1665 116.418 48.9594C116.152 48.7996 115.843 48.7249 115.533 48.7452C115.19 48.7244 114.85 48.8145 114.562 49.0023C114.491 49.0516 114.432 49.1178 114.392 49.195C114.353 49.2722 114.332 49.3581 114.334 49.445C114.334 49.526 114.354 49.6058 114.391 49.6778C114.428 49.7497 114.482 49.8119 114.548 49.8592C114.951 50.1055 115.396 50.275 115.861 50.359C116.389 50.4745 116.905 50.637 117.403 50.8446C117.739 51.0295 118.012 51.3103 118.188 51.6512C118.363 51.9921 118.433 52.3776 118.388 52.7584Z" fill="#1D1D1B"/>
<path d="M123.97 52.6449H120.572C120.575 52.9623 120.674 53.2713 120.858 53.5304C120.954 53.6568 121.08 53.7579 121.224 53.825C121.368 53.8922 121.527 53.9234 121.686 53.916C121.892 53.9184 122.093 53.8459 122.25 53.7121C122.408 53.5782 122.511 53.392 122.542 53.1876L123.97 53.4162C123.826 53.8839 123.527 54.2886 123.122 54.5637C122.717 54.8388 122.231 54.968 121.743 54.93C121.368 54.962 120.991 54.899 120.646 54.7467C120.302 54.5945 120.001 54.3579 119.773 54.0588C119.41 53.5416 119.229 52.9188 119.259 52.2879C119.225 51.6101 119.421 50.9408 119.815 50.3884C120.05 50.1275 120.339 49.921 120.661 49.7832C120.984 49.6454 121.333 49.5796 121.684 49.5905C122.034 49.6014 122.378 49.6886 122.692 49.8462C123.005 50.0037 123.281 50.2277 123.499 50.5026C123.874 51.1506 124.039 51.8992 123.97 52.6449ZM122.542 51.8166C122.549 51.522 122.464 51.2327 122.3 50.9882C122.213 50.8692 122.099 50.7731 121.967 50.7084C121.836 50.6437 121.69 50.6123 121.543 50.6169C121.394 50.6124 121.246 50.6437 121.112 50.7084C120.978 50.773 120.861 50.869 120.772 50.9882C120.608 51.2327 120.523 51.522 120.529 51.8166H122.542Z" fill="#1D1D1B"/>
<path d="M128.382 49.8301L127.968 51.0155C127.778 50.8852 127.555 50.811 127.325 50.8012C126.94 50.8012 126.668 51.0297 126.54 51.5153C126.443 52.0811 126.404 52.6555 126.426 53.2292V54.8144H124.998V49.7015H126.254V50.4299C126.386 50.2113 126.544 50.0098 126.726 49.8301C126.921 49.665 127.17 49.5784 127.425 49.5873C127.761 49.5717 128.094 49.6562 128.382 49.8301Z" fill="#1D1D1B"/>
<path d="M133.55 49.7026L131.522 54.8156H130.309L128.253 49.7026H129.681L130.652 52.3019L130.923 53.1731L131.066 52.7447C131.105 52.5945 131.152 52.4466 131.208 52.3019L132.179 49.7026H133.55Z" fill="#1D1D1B"/>
<path d="M135.62 49.0024H134.264V47.7456H135.62V49.0024ZM135.62 54.8152H134.264V49.7022H135.62V54.8152Z" fill="#1D1D1B"/>
<path d="M141.518 53.0722C141.436 53.6266 141.144 54.1285 140.703 54.4741C140.262 54.8196 139.705 54.9824 139.148 54.9288C138.806 54.9477 138.464 54.8895 138.148 54.7585C137.831 54.6275 137.549 54.427 137.32 54.1719C136.913 53.6143 136.693 52.9416 136.693 52.251C136.693 51.5604 136.913 50.8877 137.32 50.3301C137.556 50.0769 137.844 49.879 138.165 49.7506C138.486 49.6222 138.831 49.5665 139.176 49.5874C139.685 49.5385 140.195 49.6747 140.612 49.9711C141.029 50.2675 141.325 50.7042 141.446 51.2012L140.118 51.444C140.111 51.3301 140.081 51.2188 140.031 51.1166C139.98 51.0144 139.909 50.9233 139.823 50.8488C139.736 50.7743 139.636 50.7179 139.527 50.6827C139.419 50.6476 139.304 50.6345 139.19 50.6442C138.448 50.6442 138.077 51.1441 138.077 52.1581C138.077 53.1722 138.462 53.8291 139.205 53.8291C139.947 53.8291 140.061 53.5006 140.19 52.8579L141.518 53.0722Z" fill="#1D1D1B"/>
<path d="M146.857 52.6443H143.473C143.467 52.9631 143.567 53.2748 143.758 53.5298C143.853 53.6551 143.976 53.7556 144.118 53.8227C144.26 53.8899 144.416 53.9217 144.572 53.9154C144.78 53.9182 144.983 53.8463 145.143 53.7127C145.302 53.579 145.409 53.3926 145.443 53.187L146.785 53.4156C146.641 53.8833 146.342 54.288 145.937 54.5631C145.532 54.8383 145.046 54.9674 144.558 54.9294C144.183 54.9588 143.807 54.8946 143.463 54.7425C143.119 54.5904 142.818 54.3553 142.588 54.0582C142.247 53.503 142.075 52.8614 142.09 52.2104C142.105 51.5594 142.308 50.9265 142.673 50.3878C142.907 50.1272 143.194 49.9208 143.516 49.7831C143.837 49.6454 144.185 49.5796 144.535 49.5905C144.884 49.6014 145.227 49.6886 145.539 49.8461C145.852 50.0036 146.126 50.2274 146.343 50.502C146.733 51.1452 146.912 51.8941 146.857 52.6443ZM145.515 51.816C145.521 51.5214 145.436 51.2321 145.272 50.9876C145.181 50.8718 145.065 50.7782 144.933 50.7138C144.8 50.6494 144.655 50.6159 144.508 50.6159C144.361 50.6159 144.216 50.6494 144.083 50.7138C143.951 50.7782 143.835 50.8718 143.744 50.9876C143.563 51.2241 143.477 51.5193 143.501 51.816H145.515Z" fill="#1D1D1B"/>
<path d="M152.254 53.2174C152.267 53.4877 152.202 53.7561 152.068 53.9913C151.934 54.2264 151.736 54.4187 151.497 54.5456C151.024 54.8151 150.485 54.9486 149.941 54.9312C148.513 54.9312 147.757 54.4028 147.485 53.3459L148.913 53.146C148.959 53.395 149.098 53.617 149.303 53.7659C149.507 53.9148 149.762 53.9792 150.012 53.9458C150.655 53.9458 150.983 53.7601 150.983 53.403C150.983 53.046 150.798 53.046 150.426 52.9603C149.707 52.8482 149.009 52.6267 148.356 52.3033C148.161 52.1821 148.001 52.0112 147.893 51.8079C147.785 51.6047 147.733 51.3764 147.742 51.1465C147.738 50.9157 147.793 50.6876 147.903 50.4847C148.013 50.2819 148.174 50.1112 148.371 49.9897C148.81 49.7578 149.302 49.6446 149.798 49.6612C150.286 49.6329 150.775 49.7159 151.226 49.904C151.436 50.0171 151.62 50.1736 151.765 50.3632C151.911 50.5528 152.014 50.7711 152.068 51.0037L150.798 51.2465C150.683 50.8323 150.369 50.6324 149.841 50.6324C149.313 50.6324 148.913 50.7752 148.913 51.0465C148.912 51.0962 148.925 51.1451 148.951 51.1879C148.976 51.2307 149.012 51.2658 149.056 51.2893C149.465 51.4946 149.903 51.6343 150.355 51.7035C150.869 51.7885 151.357 51.9887 151.783 52.2891C151.927 52.3977 152.044 52.5378 152.126 52.6987C152.207 52.8596 152.251 53.037 152.254 53.2174Z" fill="#1D1D1B"/>
</svg>
