<svg width="20" height="20" viewBox="0 0 20 20" fill="none" xmlns="http://www.w3.org/2000/svg">
<path d="M19.4766 15.4293L15.4282 12.7295C14.9145 12.3897 14.2258 12.5015 13.846 12.9865L12.6667 14.5027C12.5152 14.7025 12.2397 14.7605 12.0205 14.6387L11.7961 14.5151C11.0525 14.1097 10.1273 13.6051 8.2631 11.7403C6.39891 9.87541 5.89328 8.94947 5.48796 8.20722L5.36496 7.9829C5.2415 7.7637 5.29837 7.48704 5.49827 7.33428L7.01347 6.15539C7.49828 5.77553 7.61026 5.08707 7.27079 4.57316L4.571 0.524806C4.2231 0.00148654 3.52511 -0.155611 2.98652 0.168153L1.29364 1.18507C0.761726 1.49778 0.371482 2.00422 0.204737 2.59828C-0.404864 4.81944 0.0537329 8.65281 5.70064 14.3004C10.1926 18.792 13.5367 19.9999 15.8352 19.9999C16.3642 20.0022 16.8911 19.9334 17.4018 19.7953C17.9959 19.6288 18.5025 19.2385 18.815 18.7064L19.8329 17.0145C20.1571 16.4758 20.0001 15.7774 19.4766 15.4293Z" fill="#76B82A"/>
</svg>
