<svg width="20" height="30" viewBox="0 0 20 30" fill="none" xmlns="http://www.w3.org/2000/svg">
<path fill-rule="evenodd" clip-rule="evenodd" d="M0 9.82482C0 4.40737 4.48598 0 10.0001 0C15.514 0 20 4.40737 20 9.82482C20 15.0313 10.9122 29.1195 10.5253 29.7167C10.411 29.8931 10.2129 30 10.0001 30C9.7872 30 9.5891 29.8931 9.47477 29.7167C9.08791 29.1195 0 15.0313 0 9.82482ZM5.18066 9.18135C5.18066 6.68676 7.26689 4.65723 9.83121 4.65723C12.3955 4.65723 14.4818 6.68676 14.4818 9.18135C14.4818 11.6759 12.3955 13.7053 9.83121 13.7053C7.26689 13.7053 5.18066 11.6759 5.18066 9.18135Z" fill="#76B82A"/>
</svg>
