<svg width="20" height="20" viewBox="0 0 20 20" fill="none" xmlns="http://www.w3.org/2000/svg">
<path d="M12.7176 0C8.70198 0 5.43519 3.26679 5.43519 7.28201C5.43519 9.03513 6.05472 10.6879 7.17073 12.0008L6.02152 13.1504L5.60707 12.7355C5.37816 12.507 5.00707 12.507 4.77855 12.7355L0.171533 17.3425C-0.0569823 17.5711 -0.0573729 17.9421 0.171533 18.1711L1.82895 19.8285C2.05786 20.057 2.42856 20.0574 2.65746 19.8285L7.26409 15.2214C7.493 14.9929 7.493 14.6218 7.26409 14.3929L6.85003 13.9789L7.99925 12.8293C9.31526 13.948 10.9692 14.5648 12.7176 14.5648C16.7332 14.5648 20 11.298 20 7.28201C20 3.26679 16.7332 0 12.7176 0V0ZM12.7176 3.51562C10.6406 3.51562 8.95081 5.20546 8.95081 7.2824C8.95081 7.60584 8.68831 7.86834 8.36487 7.86834C8.04105 7.86834 7.77894 7.60584 7.77894 7.2824C7.77894 4.55936 9.99456 2.34374 12.7176 2.34374C13.041 2.34374 13.3035 2.60624 13.3035 2.92968C13.3035 3.25312 13.041 3.51562 12.7176 3.51562Z" fill="#76B82A"/>
</svg>
