<svg width="19" height="15" viewBox="0 0 19 15" fill="none" xmlns="http://www.w3.org/2000/svg">
<path d="M16.3516 3.75781C16.3516 3.92188 16.3516 4.08594 16.3516 4.22656C16.3516 9.07812 12.6484 14.6797 5.89844 14.6797C3.8125 14.6797 1.89062 14.0703 0.25 13.0391C0.53125 13.0625 0.835937 13.0859 1.11719 13.0859C2.82812 13.0859 4.42187 12.5 5.6875 11.5156C4.07031 11.4922 2.71094 10.4141 2.26562 8.96094C2.5 9.00781 2.71094 9.03125 2.96875 9.03125C3.29687 9.03125 3.625 8.98438 3.92969 8.89062C2.24219 8.5625 0.976562 7.08594 0.976562 5.30469C0.976562 5.28125 0.976562 5.28125 0.976562 5.25781C1.46875 5.53906 2.03125 5.70312 2.64062 5.72656C1.65625 5.07031 1 3.94531 1 2.65625C1 1.97656 1.1875 1.34375 1.49219 0.804688C3.29687 3.03125 6.01562 4.48438 9.0625 4.64844C8.99219 4.39062 8.96875 4.08594 8.96875 3.80469C8.96875 1.76563 10.6094 0.125 12.6484 0.125C13.7031 0.125 14.6641 0.570313 15.3203 1.27344C16.1641 1.10938 16.9375 0.804688 17.6641 0.382812C17.3828 1.25 16.7969 1.95313 16.0469 2.42188C16.7969 2.32812 17.5 2.14062 18.1562 1.83594C17.6875 2.58594 17.0781 3.24219 16.3516 3.75781Z" fill="white"/>
</svg>
