<svg width="20" height="14" viewBox="0 0 20 14" fill="none" xmlns="http://www.w3.org/2000/svg">
<path fill-rule="evenodd" clip-rule="evenodd" d="M17.3362 0.839063C18.1393 1.05529 18.7726 1.68852 18.9888 2.49165C19.3904 3.9589 19.3749 7.01696 19.3749 7.01696C19.3749 7.01696 19.3749 10.0596 18.9888 11.5268C18.7726 12.33 18.1393 12.9632 17.3362 13.1794C15.869 13.5655 9.99996 13.5655 9.99996 13.5655C9.99996 13.5655 4.1464 13.5655 2.66371 13.164C1.86058 12.9477 1.22735 12.3145 1.01112 11.5114C0.625 10.0596 0.625 7.00152 0.625 7.00152C0.625 7.00152 0.625 3.9589 1.01112 2.49165C1.22735 1.68852 1.87602 1.03985 2.66371 0.823619C4.13096 0.4375 9.99996 0.4375 9.99996 0.4375C9.99996 0.4375 15.869 0.4375 17.3362 0.839063ZM13.0117 7.00143L8.13114 9.81238V4.19049L13.0117 7.00143Z" fill="white"/>
</svg>
